<svg xmlns="http://www.w3.org/2000/svg" width="420" height="62.818" viewBox="0 0 420 62.818">
  <g id="List_04" data-name="List 04" transform="translate(-300 -4400)">
    <g id="Group_1000004874" data-name="Group 1000004874">
      <g id="text">
        <text id="Artificial_Inteligence" data-name="Artificial Inteligence" transform="translate(384 4404.16)" fill="#191919" font-size="22" font-family="SegoeUI-Bold, Segoe UI" font-weight="700"><tspan x="0" y="24">Artificial Inteligence</tspan></text>
        <text id="Dominion_fowle_in_there_light_she_does_lights." data-name="Dominion fowle in there light she does lights." transform="translate(384 4441.818)" fill="rgba(25,25,25,0.7)" font-size="16" font-family="SegoeUI, Segoe UI" letter-spacing="-0.01em"><tspan x="0" y="17">Lorem, ipsum dolor sit amet consectetur.</tspan></text>
      </g>
      <g id="Group_1000004869" data-name="Group 1000004869">
        <circle id="Ellipse_9" data-name="Ellipse 9" cx="30" cy="30" r="30" transform="translate(300 4400)" fill="#fff"/>
        <path id="Ellipse_9_-_Outline" data-name="Ellipse 9 - Outline" d="M30,1A29.008,29.008,0,0,0,18.712,56.721,29.008,29.008,0,0,0,41.288,3.279,28.818,28.818,0,0,0,30,1m0-1A30,30,0,1,1,0,30,30,30,0,0,1,30,0Z" transform="translate(300 4400)" fill="rgba(25,25,25,0.1)"/>
        <g id="Group_1000004866" data-name="Group 1000004866">
          <g id="Frame_25" data-name="Frame 25" transform="translate(314 4414)">
            <rect id="Frame_25-2" data-name="Frame 25" width="32" height="32" fill="#fff"/>
            <path id="https:_www.flaticon.com_free-icon_intelligence_2252188_related_id_2252188_origin_search" data-name="https://www.flaticon.com/free-icon/intelligence_2252188?related_id=2252188&amp;origin=search" d="M7.449.565A11.159,11.159,0,0,1,18.877,3.231a11.019,11.019,0,0,1,3.014,5.581,14.015,14.015,0,0,0,2.169,4.982l.829,1.232a.661.661,0,0,1-.55,1.029H22.115v3.358a1.785,1.785,0,0,1-1.784,1.78H18.725a.1.1,0,0,0-.1.1V27H8.684l-.042-.375a9.051,9.051,0,0,0-.943-3.18A9.162,9.162,0,0,0,4.777,20.12,11.059,11.059,0,0,1,7.449.565ZM.846,11.034a10.192,10.192,0,0,0,4.414,8.394,10.038,10.038,0,0,1,3.188,3.628,9.916,9.916,0,0,1,.985,3.1h8.35V21.284a.943.943,0,0,1,.943-.941h1.607a.938.938,0,0,0,.939-.936V15.864a.66.66,0,0,1,.66-.658H24l-.638-.945a14.887,14.887,0,0,1-2.3-5.285,10.158,10.158,0,0,0-2.782-5.15A10.333,10.333,0,0,0,7.7,1.371,10.122,10.122,0,0,0,.846,11.034Z" transform="translate(3 3)" fill="#191919"/>
            <path id="https:_www.flaticon.com_free-icon_intelligence_2252188_related_id_2252188_origin_search_-_Outline" data-name="https://www.flaticon.com/free-icon/intelligence_2252188?related_id=2252188&amp;origin=search - Outline" d="M11.066-.25a11.3,11.3,0,0,1,11.07,9.011,13.759,13.759,0,0,0,2.131,4.892l.829,1.232a.911.911,0,0,1-.757,1.419H22.365v3.108a2.034,2.034,0,0,1-2.034,2.03H18.877V27.25H8.46l-.067-.6a8.8,8.8,0,0,0-.916-3.093,8.916,8.916,0,0,0-2.842-3.234,11.309,11.309,0,0,1,2.738-20A12.32,12.32,0,0,1,11.066-.25ZM24.339,15.8a.411.411,0,0,0,.342-.64l-.828-1.231a14.255,14.255,0,0,1-2.206-5.071A10.8,10.8,0,0,0,11.066.25,11.819,11.819,0,0,0,7.524.8a10.809,10.809,0,0,0-2.6,19.111,9.418,9.418,0,0,1,3,3.415A9.293,9.293,0,0,1,8.89,26.6l.017.153h9.47V21.289a.348.348,0,0,1,.347-.347h1.607a1.534,1.534,0,0,0,1.534-1.53V15.8ZM11.059.595h0A10.449,10.449,0,0,1,21.308,8.926a14.63,14.63,0,0,0,2.258,5.2l.9,1.334H21.929a.409.409,0,0,0-.41.408v3.543a1.189,1.189,0,0,1-1.189,1.186H18.725a.692.692,0,0,0-.693.691V26.4H9.217l-.032-.213a9.669,9.669,0,0,0-.96-3.018,9.78,9.78,0,0,0-3.108-3.537,10.467,10.467,0,0,1,2.51-18.5A11.426,11.426,0,0,1,11.059.595ZM23.526,14.956l-.375-.555a15.127,15.127,0,0,1-2.333-5.375A9.949,9.949,0,0,0,11.06,1.095a10.909,10.909,0,0,0-3.282.514A9.967,9.967,0,0,0,5.4,19.223a10.281,10.281,0,0,1,3.268,3.718A10.093,10.093,0,0,1,9.645,25.9h7.887V21.284a1.193,1.193,0,0,1,1.193-1.191h1.607a.688.688,0,0,0,.689-.686V15.864a.91.91,0,0,1,.91-.908Z" transform="translate(3 3)" fill="#191919"/>
            <path id="https:_www.flaticon.com_free-icon_intelligence_2252188_related_id_2252188_origin_search-2" data-name="https://www.flaticon.com/free-icon/intelligence_2252188?related_id=2252188&amp;origin=search" d="M3.6,12.367V9.659l1.839-.371a5.954,5.954,0,0,1,.486-1.177L4.891,6.551,6.811,4.631,8.375,5.665A6.053,6.053,0,0,1,9.55,5.18l.372-1.835h2.714l.372,1.835a6.028,6.028,0,0,1,1.18.485l1.564-1.033,1.919,1.915L16.64,8.107a6.061,6.061,0,0,1,.486,1.177l1.839.371v2.708l-1.839.371a5.954,5.954,0,0,1-.486,1.177l1.032,1.561-1.919,1.915-1.564-1.033a6.3,6.3,0,0,1-1.18.485l-.372,1.835-2.714,0L9.55,16.839a6.053,6.053,0,0,1-1.175-.485L6.811,17.387,4.891,15.472l1.032-1.556a6.171,6.171,0,0,1-.486-1.177Zm.85-.7,1.678.342.063.262a5.339,5.339,0,0,0,.6,1.438l.135.228-.943,1.422.943.941,1.425-.945.228.135a5.131,5.131,0,0,0,1.437.595l.262.063.342,1.675h1.332l.342-1.67.258-.063a5.17,5.17,0,0,0,1.442-.595l.228-.139,1.429.945.943-.941-.943-1.422.135-.228a5.207,5.207,0,0,0,.6-1.438l.063-.257,1.678-.342V10.343L16.442,10l-.063-.257a5.339,5.339,0,0,0-.6-1.438l-.135-.228.943-1.422-.943-.941-1.429.945-.228-.139a5.3,5.3,0,0,0-1.442-.595l-.258-.063-.342-1.675H10.616l-.342,1.679-.262.063a5.4,5.4,0,0,0-1.437.595l-.228.135L6.921,5.715l-.943.941.943,1.422-.135.228a5.081,5.081,0,0,0-.6,1.438l-.063.262-1.678.342Z" transform="translate(3 3)" fill="#191919"/>
            <path id="https:_www.flaticon.com_free-icon_intelligence_2252188_related_id_2252188_origin_search_-_Outline-2" data-name="https://www.flaticon.com/free-icon/intelligence_2252188?related_id=2252188&amp;origin=search - Outline" d="M12.841,18.924l-3.123,0-.383-1.885a6.327,6.327,0,0,1-.945-.391L6.779,17.708,4.57,15.5l1.063-1.6a6.461,6.461,0,0,1-.392-.946l-1.894-.382V9.455l1.893-.382a6.238,6.238,0,0,1,.392-.947L4.57,6.518,6.778,4.31,8.39,5.375a6.326,6.326,0,0,1,.945-.391l.383-1.889h3.123l.383,1.89a6.318,6.318,0,0,1,.95.39L15.785,4.31l2.208,2.2L16.93,8.122a6.312,6.312,0,0,1,.392.947l1.894.382v3.117l-1.893.382a6.237,6.237,0,0,1-.392.947L17.993,15.5l-2.208,2.2-1.612-1.065a6.581,6.581,0,0,1-.949.391Zm-2.714-.5,2.306,0,.361-1.782.144-.043a6.072,6.072,0,0,0,1.133-.466l.131-.07,1.518,1,1.63-1.627-1-1.515.071-.132a5.727,5.727,0,0,0,.466-1.127l.042-.146,1.787-.361V9.86L16.929,9.5l-.042-.145a5.8,5.8,0,0,0-.466-1.128l-.071-.132,1-1.515L15.72,4.952l-1.52,1-.132-.072a5.811,5.811,0,0,0-1.131-.465l-.144-.043-.361-1.782H10.127L9.765,5.378,9.62,5.42a5.817,5.817,0,0,0-1.127.465l-.132.071-1.519-1L5.213,6.583l1,1.515-.071.132a5.728,5.728,0,0,0-.466,1.127L5.635,9.5l-1.787.361v2.3l1.787.361.042.145A5.946,5.946,0,0,0,6.144,13.8l.07.132-1,1.51,1.63,1.627,1.519-1,.132.071A5.818,5.818,0,0,0,9.62,16.6l.145.042Zm2.025-.348h-1.74l-.351-1.719-.108-.026A5.375,5.375,0,0,1,8.444,15.7l-.091-.054-1.464.971L5.657,15.39l.969-1.461-.055-.093a5.585,5.585,0,0,1-.624-1.5l-.027-.109L4.2,11.871V10.143L5.92,9.792l.026-.107a5.33,5.33,0,0,1,.626-1.509l.054-.09L5.657,6.624,6.889,5.394l1.464.971.093-.055a5.635,5.635,0,0,1,1.5-.622l.11-.027.351-1.723h1.74L12.5,5.658l.1.026a5.552,5.552,0,0,1,1.511.624l.094.057,1.467-.97,1.232,1.229-.969,1.461L16,8.178a5.585,5.585,0,0,1,.624,1.5l.026.105,1.724.351v1.737l-1.724.351-.026.1A5.447,5.447,0,0,1,16,13.837l-.055.092.969,1.461L15.679,16.62l-1.467-.97-.093.057a5.411,5.411,0,0,1-1.512.624l-.1.026Zm-1.332-.5h.924l.333-1.625.411-.1a4.91,4.91,0,0,0,1.372-.566l.363-.221,1.391.92.654-.652-.916-1.382.215-.363a4.95,4.95,0,0,0,.568-1.37l.1-.411,1.633-.332v-.92l-1.633-.332-.1-.411a5.086,5.086,0,0,0-.568-1.37l-.216-.364.916-1.382-.654-.652-1.391.92-.364-.222a5.048,5.048,0,0,0-1.373-.566l-.41-.1-.333-1.63H10.82l-.333,1.635-.417.1A5.132,5.132,0,0,0,8.7,6.74l-.364.215L6.953,6.037,6.3,6.688,7.216,8.07,7,8.433A4.835,4.835,0,0,0,6.432,9.8l-.1.415L4.7,10.551v.912l1.634.333.1.416A5.084,5.084,0,0,0,7,13.58l.216.364L6.3,15.326l.653.652,1.385-.919.363.215a4.879,4.879,0,0,0,1.37.567l.416.1Z" transform="translate(3 3)" fill="#191919"/>
            <path id="https:_www.flaticon.com_free-icon_intelligence_2252188_related_id_2252188_origin_search-3" data-name="https://www.flaticon.com/free-icon/intelligence_2252188?related_id=2252188&amp;origin=search" d="M8.155,11.009a3.124,3.124,0,1,1,3.124,3.117A3.127,3.127,0,0,1,8.155,11.009Zm.846,0A2.279,2.279,0,1,0,11.28,8.736,2.28,2.28,0,0,0,9,11.009Z" transform="translate(3 3)" fill="#191919"/>
            <path id="https:_www.flaticon.com_free-icon_intelligence_2252188_related_id_2252188_origin_search_-_Outline-3" data-name="https://www.flaticon.com/free-icon/intelligence_2252188?related_id=2252188&amp;origin=search - Outline" d="M11.28,7.642a3.367,3.367,0,1,1-3.374,3.367A3.375,3.375,0,0,1,11.28,7.642Zm0,6.234a2.867,2.867,0,1,0-2.874-2.867A2.874,2.874,0,0,0,11.28,13.876Zm0-5.391a2.524,2.524,0,1,1-2.529,2.524A2.529,2.529,0,0,1,11.28,8.486Zm0,4.547a2.024,2.024,0,1,0-2.029-2.024A2.028,2.028,0,0,0,11.28,13.033Z" transform="translate(3 3)" fill="#191919"/>
          </g>
        </g>
      </g>
    </g>
  </g>
</svg>
