<svg xmlns="http://www.w3.org/2000/svg" width="420" height="62.818" viewBox="0 0 420 62.818">
  <g id="List_03" data-name="List 03" transform="translate(-300 -4295)">
    <g id="Group_1000004875" data-name="Group 1000004875">
      <g id="text">
        <text id="Experience_Design" data-name="Experience Design" transform="translate(384 4299.16)" fill="#191919" font-size="22" font-family="SegoeUI-Bold, Segoe UI" font-weight="700"><tspan x="0" y="24">Experience Design</tspan></text>
        <text id="Dominion_fowle_in_there_light_she_does_lights." data-name="Dominion fowle in there light she does lights." transform="translate(384 4336.818)" fill="rgba(25,25,25,0.7)" font-size="16" font-family="SegoeUI, Segoe UI" letter-spacing="-0.01em"><tspan x="0" y="17">Lorem, ipsum dolor sit amet consectetur.</tspan></text>
      </g>
      <g id="Group_1000004870" data-name="Group 1000004870">
        <circle id="Ellipse_9" data-name="Ellipse 9" cx="30" cy="30" r="30" transform="translate(300 4295)" fill="#fff"/>
        <path id="Ellipse_9_-_Outline" data-name="Ellipse 9 - Outline" d="M30,1A29.008,29.008,0,0,0,18.712,56.721,29.008,29.008,0,0,0,41.288,3.279,28.818,28.818,0,0,0,30,1m0-1A30,30,0,1,1,0,30,30,30,0,0,1,30,0Z" transform="translate(300 4295)" fill="rgba(25,25,25,0.1)"/>
        <g id="Group_1000004867" data-name="Group 1000004867">
          <g id="Frame_24" data-name="Frame 24" transform="translate(314 4309)">
            <rect id="Frame_24-2" data-name="Frame 24" width="32" height="32" fill="#fff"/>
            <path id="https:_www.flaticon.com_free-icon_vector_681630_related_id_681630" data-name="https://www.flaticon.com/free-icon/vector_681630?related_id=681630" d="M14.535,18.57h0a.389.389,0,0,1-.4.382H8.69v2.285h.9a.382.382,0,1,1,0,.763h-1.3a.389.389,0,0,1-.4-.382V18.57a.389.389,0,0,1,.4-.382h.514L6.293,14.111a.37.37,0,0,1,0-.39L8.777,9.7a.4.4,0,0,1,.543-.133.374.374,0,0,1,.138.523L7.094,13.916l2.634,4.272h4.411a.389.389,0,0,1,.4.382Z" transform="translate(3 5)" fill="#191919"/>
            <path id="https:_www.flaticon.com_free-icon_vector_681630_related_id_681630_-_Outline" data-name="https://www.flaticon.com/free-icon/vector_681630?related_id=681630 - Outline" d="M9.595,22.25h-1.3a.64.64,0,0,1-.646-.632V18.57a.64.64,0,0,1,.646-.632H8.36l-2.279-3.7a.618.618,0,0,1,0-.653l2.484-4.02a.655.655,0,0,1,.88-.218.628.628,0,0,1,.3.393.616.616,0,0,1-.074.479L7.388,13.916l2.48,4.022h4.271a.632.632,0,1,1,0,1.264H8.94v1.785h.655a.632.632,0,1,1,0,1.263Zm-1.3-3.812a.14.14,0,0,0-.146.132v3.048a.14.14,0,0,0,.146.132h1.3a.132.132,0,1,0,0-.263H8.44V18.7h5.7a.133.133,0,1,0,0-.264H9.589L6.8,13.916,9.245,9.959a.118.118,0,0,0,.015-.093A.133.133,0,0,0,9.2,9.784a.158.158,0,0,0-.206.047l-2.484,4.02a.119.119,0,0,0,0,.127l2.75,4.459Z" transform="translate(3 5)" fill="#191919"/>
            <path id="https:_www.flaticon.com_free-icon_vector_681630_related_id_681630-2" data-name="https://www.flaticon.com/free-icon/vector_681630?related_id=681630" d="M27,13.046v2.405a.389.389,0,0,1-.4.382h-2.5a.389.389,0,0,1-.4-.382V13.046a.389.389,0,0,1,.4-.382h.822a10.8,10.8,0,0,0-2.959-7.046A11.57,11.57,0,0,0,15.122,2.1v.684a.389.389,0,0,1-.4.382h-.582L20.663,13.72a.37.37,0,0,1,0,.39l-2.514,4.078h.514a.389.389,0,0,1,.4.382v3.048a.389.389,0,0,1-.4.382H11.179a.382.382,0,1,1,0-.763h7.088V18.951H15.723a.389.389,0,0,1-.4-.382.372.372,0,0,1,0-.039.391.391,0,0,1,.394-.343h1.5l2.635-4.272L13.874,4.224v7.065a1.54,1.54,0,0,1,1.188,1.478,1.585,1.585,0,0,1-3.167,0,1.54,1.54,0,0,1,1.188-1.478V4.224L10.274,8.769a.4.4,0,0,1-.543.133.374.374,0,0,1-.138-.523l3.219-5.21H12.23a.389.389,0,0,1-.4-.382V2.1A11.57,11.57,0,0,0,4.985,5.619a10.805,10.805,0,0,0-2.959,7.046h.866a.389.389,0,0,1,.4.382v2.405a.389.389,0,0,1-.4.382H.4a.389.389,0,0,1-.4-.382V13.046a.389.389,0,0,1,.4-.382h.838A11.551,11.551,0,0,1,4.4,5.106,12.273,12.273,0,0,1,8.969,2.052H3.229A1.637,1.637,0,0,1,1.643,3.218,1.616,1.616,0,0,1,0,1.635,1.616,1.616,0,0,1,1.643.051a1.633,1.633,0,0,1,1.6,1.238h8.587V.382A.389.389,0,0,1,12.23,0h2.5a.389.389,0,0,1,.4.382v.907h8.587a1.634,1.634,0,0,1,1.6-1.238,1.616,1.616,0,0,1,1.643,1.584,1.616,1.616,0,0,1-1.643,1.584,1.637,1.637,0,0,1-1.585-1.166H17.987a12.274,12.274,0,0,1,4.571,3.055,11.551,11.551,0,0,1,3.164,7.558H26.6a.389.389,0,0,1,.4.382ZM24.461,1.635a.852.852,0,0,0,1.7,0,.852.852,0,0,0-1.7,0Zm-21.966,0A.837.837,0,0,0,1.643.814a.837.837,0,0,0-.851.821.837.837,0,0,0,.851.821.837.837,0,0,0,.851-.821ZM.792,13.428V15.07H2.5V13.428ZM13.478,12a.764.764,0,1,0,.792.763A.779.779,0,0,0,13.478,12ZM14.33.763h-1.7V2.405h1.7V1.67h0ZM26.208,13.428H24.5V15.07h1.7Z" transform="translate(3 5)" fill="#191919"/>
            <path id="https:_www.flaticon.com_free-icon_vector_681630_related_id_681630_-_Outline-2" data-name="https://www.flaticon.com/free-icon/vector_681630?related_id=681630 - Outline" d="M18.662,22.25H11.179a.632.632,0,1,1,0-1.263h6.838V19.2H15.723a.64.64,0,0,1-.646-.632.627.627,0,0,1,0-.065.639.639,0,0,1,.643-.567h1.364l2.48-4.022L14.124,5.1v6a1.779,1.779,0,0,1,1.188,1.663,1.835,1.835,0,0,1-3.667,0A1.779,1.779,0,0,1,12.832,11.1v-6L10.486,8.9a.655.655,0,0,1-.88.218.628.628,0,0,1-.3-.393.616.616,0,0,1,.074-.479l2.983-4.829H12.23a.64.64,0,0,1-.646-.632V2.393a11.35,11.35,0,0,0-6.417,3.4,10.6,10.6,0,0,0-2.879,6.624h.6a.64.64,0,0,1,.646.632v2.405a.64.64,0,0,1-.646.632H.4a.64.64,0,0,1-.646-.632V13.046A.64.64,0,0,1,.4,12.414h.6A11.841,11.841,0,0,1,4.216,4.935,12.565,12.565,0,0,1,7.775,2.3H3.407A1.9,1.9,0,0,1,1.643,3.468,1.866,1.866,0,0,1-.25,1.635,1.866,1.866,0,0,1,1.643-.2a1.905,1.905,0,0,1,1.79,1.238h8.151V.382A.64.64,0,0,1,12.23-.25h2.5a.64.64,0,0,1,.646.632v.657h8.151A1.905,1.905,0,0,1,25.313-.2a1.866,1.866,0,0,1,1.893,1.834,1.866,1.866,0,0,1-1.893,1.834A1.9,1.9,0,0,1,23.549,2.3H19.181a12.566,12.566,0,0,1,3.56,2.633,11.841,11.841,0,0,1,3.222,7.479H26.6a.64.64,0,0,1,.646.632v2.405a.64.64,0,0,1-.646.632h-2.5a.64.64,0,0,1-.646-.632V13.046a.64.64,0,0,1,.646-.632h.56A10.6,10.6,0,0,0,21.789,5.79a11.35,11.35,0,0,0-6.417-3.4v.394a.64.64,0,0,1-.646.632h-.134l6.283,10.17a.618.618,0,0,1,0,.653l-2.279,3.7h.066a.64.64,0,0,1,.646.632v3.048A.64.64,0,0,1,18.662,22.25Zm-7.484-.763a.132.132,0,1,0,0,.263h7.484a.14.14,0,0,0,.146-.132V18.57a.14.14,0,0,0-.146-.132H17.7l2.749-4.459a.119.119,0,0,0,0-.128L13.7,2.919h1.031a.14.14,0,0,0,.146-.132V1.816l.284.039a11.859,11.859,0,0,1,7,3.593,11.086,11.086,0,0,1,3.026,7.208l.009.259H24.108a.14.14,0,0,0-.146.132v2.405a.14.14,0,0,0,.146.132h2.5a.14.14,0,0,0,.146-.132V13.046a.14.14,0,0,0-.146-.132H25.48l-.008-.242a11.332,11.332,0,0,0-3.1-7.395A12.1,12.1,0,0,0,17.9,2.285l.089-.484h5.93l.052.182a1.388,1.388,0,0,0,1.345.985,1.366,1.366,0,0,0,1.393-1.334A1.366,1.366,0,0,0,25.313.3a1.39,1.39,0,0,0-1.36,1.044l-.045.193H14.872V.382A.14.14,0,0,0,14.726.25h-2.5a.14.14,0,0,0-.146.132V1.539H3.048L3,1.345A1.39,1.39,0,0,0,1.643.3,1.366,1.366,0,0,0,.25,1.635,1.366,1.366,0,0,0,1.643,2.968a1.388,1.388,0,0,0,1.345-.985L3.04,1.8h5.93l.089.484A12.1,12.1,0,0,0,4.58,5.278a11.332,11.332,0,0,0-3.1,7.395l-.008.242H.4a.14.14,0,0,0-.146.132v2.405a.14.14,0,0,0,.146.132h2.5a.14.14,0,0,0,.146-.132V13.046a.14.14,0,0,0-.146-.132H1.768l.009-.259A11.086,11.086,0,0,1,4.8,5.448a11.859,11.859,0,0,1,7-3.593l.284-.039v.971a.14.14,0,0,0,.146.132h1.03L9.806,8.51a.118.118,0,0,0-.015.093.132.132,0,0,0,.064.082.156.156,0,0,0,.078.021.15.15,0,0,0,.128-.068l3.271-5.295v8.141l-.19.047a1.288,1.288,0,0,0-1,1.235,1.335,1.335,0,0,0,2.667,0,1.288,1.288,0,0,0-1-1.235l-.19-.047V3.343l6.531,10.572-2.789,4.523H15.723a.142.142,0,0,0-.145.119.123.123,0,0,0,0,.013.14.14,0,0,0,.146.132h2.793v2.785Zm15.28-6.167h-2.2V13.178h2.2Zm-1.7-.5h1.2V13.678h-1.2Zm-22.008.5H.542V13.178h2.2Zm-1.7-.5h1.2V13.678h-1.2Zm12.436-1.04a1.013,1.013,0,1,1,0-2.026h0a1.05,1.05,0,0,1,.733.294.992.992,0,0,1,.309.719A1.029,1.029,0,0,1,13.478,13.779Zm0-1.526a.514.514,0,1,0,.542.513.5.5,0,0,0-.156-.359.553.553,0,0,0-.386-.154ZM25.313,2.705a1.088,1.088,0,0,1-1.1-1.071,1.1,1.1,0,0,1,2.2,0A1.088,1.088,0,0,1,25.313,2.705Zm0-1.641a.587.587,0,0,0-.6.571.6.6,0,0,0,1.2,0A.587.587,0,0,0,25.313,1.064ZM1.643,2.705a1.088,1.088,0,0,1-1.1-1.071A1.088,1.088,0,0,1,1.643.564a1.088,1.088,0,0,1,1.1,1.071A1.088,1.088,0,0,1,1.643,2.705Zm0-1.641a.587.587,0,0,0-.6.571.587.587,0,0,0,.6.571.587.587,0,0,0,.6-.571A.587.587,0,0,0,1.643,1.064ZM14.58,2.655h-2.2V.513h2.2Zm-1.7-.5h1.2V1.013h-1.2Z" transform="translate(3 5)" fill="#191919"/>
          </g>
        </g>
      </g>
    </g>
  </g>
</svg>
