<svg id="Frame_21" data-name="Frame 21" xmlns="http://www.w3.org/2000/svg" width="227" height="158.818" viewBox="0 0 227 158.818">
  <g id="Icon">
    <g id="Frame_4" data-name="Frame 4">
      <rect id="Frame_4-2" data-name="Frame 4" width="40" height="40" fill="none"/>
      <path id="https:_www.flaticon.com_free-icon_bars_547166_term_finance_page_1_position_8_page_1_position_8_related_id_547166_origin_search" data-name="https://www.flaticon.com/free-icon/bars_547166?term=finance&amp;page=1&amp;position=8&amp;page=1&amp;position=8&amp;related_id=547166&amp;origin=search" d="M35.845,5.213a5.18,5.18,0,0,1-5.1,5.249,5.12,5.12,0,0,1-5.061-5.213,5.081,5.081,0,1,1,10.157-.036Zm-1.117.036a3.98,3.98,0,1,0-7.958-.036,3.98,3.98,0,1,0,7.958.036Z" transform="translate(2 4)" fill="#191919"/>
      <path id="https:_www.flaticon.com_free-icon_bars_547166_term_finance_page_1_position_8_page_1_position_8_related_id_547166_origin_search_-_Outline" data-name="https://www.flaticon.com/free-icon/bars_547166?term=finance&amp;page=1&amp;position=8&amp;page=1&amp;position=8&amp;related_id=547166&amp;origin=search - Outline" d="M30.749-.5a5.509,5.509,0,0,1,3.965,1.665,5.742,5.742,0,0,1,1.631,4.049,5.681,5.681,0,0,1-5.6,5.749A5.458,5.458,0,0,1,26.814,9.3a5.756,5.756,0,0,1-1.625-4.048A5.823,5.823,0,0,1,26.8,1.186,5.437,5.437,0,0,1,30.749-.5Zm0,10.463a4.68,4.68,0,0,0,4.6-4.749,4.581,4.581,0,1,0-9.157.036A4.644,4.644,0,0,0,30.749,9.963Zm0-9.312a4.545,4.545,0,0,1,4.479,4.6A4.578,4.578,0,0,1,33.92,8.481a4.413,4.413,0,0,1-3.171,1.332,4.545,4.545,0,0,1-4.479-4.6A4.527,4.527,0,0,1,30.749.651Zm0,8.162a3.526,3.526,0,0,0,3.479-3.563,3.48,3.48,0,1,0-6.958-.036A3.544,3.544,0,0,0,30.749,8.812Z" transform="translate(2 4)" fill="#191919"/>
      <path id="https:_www.flaticon.com_free-icon_bars_547166_term_finance_page_1_position_8_page_1_position_8_related_id_547166_origin_search-2" data-name="https://www.flaticon.com/free-icon/bars_547166?term=finance&amp;page=1&amp;position=8&amp;page=1&amp;position=8&amp;related_id=547166&amp;origin=search" d="M32.39,6.328a1.14,1.14,0,0,1-.035.36l-.1.324a2.018,2.018,0,0,1-.175.288,1.552,1.552,0,0,1-.209.252,1.22,1.22,0,0,1-.279.18,1.222,1.222,0,0,1-.314.144h-.035v.755H30.4V7.91h-.07a.747.747,0,0,1-.279-.036c-.1-.036-.209-.036-.279-.072a.633.633,0,0,1-.244-.072.454.454,0,0,0-.314-.036l-.1-.036V7.551l.07-.647.035-.252.209.108c.035,0,.07.036.1.036s.07.036.1.036c.07.036.14.036.209.072a.486.486,0,0,0,.209.072,1.473,1.473,0,0,0,.175.036h.454a1.473,1.473,0,0,0,.175-.036c.035-.036.1-.036.14-.072a.484.484,0,0,0,.14-.108l.1-.108a.276.276,0,0,0,.07-.144v-.18a1.6,1.6,0,0,0-.035-.18c-.035-.072-.035-.108-.07-.144l-.1-.108c-.035,0-.07-.036-.1-.072s-.1-.036-.14-.072a.262.262,0,0,0-.14-.072,2.362,2.362,0,0,0-.279-.108,2.048,2.048,0,0,0-.279-.144.869.869,0,0,1-.244-.144.627.627,0,0,1-.244-.18c-.07-.072-.1-.144-.175-.216-.035-.072-.1-.18-.14-.252a.958.958,0,0,1-.1-.288.814.814,0,0,1-.035-.288,1.259,1.259,0,0,1,.035-.36l.1-.324a.731.731,0,0,1,.14-.288,1.552,1.552,0,0,1,.209-.252.627.627,0,0,1,.244-.18,1.222,1.222,0,0,1,.314-.144H30.3V1.834h.838v.683h.035c.07,0,.1.036.175.036a1.472,1.472,0,0,1,.175.036c.07,0,.1.036.14.036s.1.036.14.036l.14.036V2.84l-.07.575-.035.216-.175-.072c-.035,0-.07-.036-.14-.036-.035,0-.1-.036-.14-.036a1.473,1.473,0,0,0-.175-.036.307.307,0,0,0-.175-.036h-.209a.307.307,0,0,0-.175.036.263.263,0,0,0-.175.072l-.1.108c-.035.036-.035.108-.07.144,0,.036-.035.108-.035.144V4.1a.221.221,0,0,0,.035.144.189.189,0,0,0,.07.144l.1.108c.035.036.1.036.14.072s.1.036.14.072a.262.262,0,0,0,.14.072,2.362,2.362,0,0,0,.279.108c.1.036.175.108.279.144a.869.869,0,0,1,.244.144.627.627,0,0,1,.244.18c.07.072.1.144.175.216a.909.909,0,0,1,.14.252.958.958,0,0,1,.1.288.814.814,0,0,1,.035.288Z" transform="translate(2 4)" fill="#191919"/>
      <path id="https:_www.flaticon.com_free-icon_bars_547166_term_finance_page_1_position_8_page_1_position_8_related_id_547166_origin_search_-_Outline-2" data-name="https://www.flaticon.com/free-icon/bars_547166?term=finance&amp;page=1&amp;position=8&amp;page=1&amp;position=8&amp;related_id=547166&amp;origin=search - Outline" d="M31.738,9.129H29.9V8.351l-.011,0a.685.685,0,0,0-.07-.015,1.261,1.261,0,0,1-.164-.039,1.218,1.218,0,0,1-.32-.1l-.01,0-.011,0-.118.031-.249-.084-.338-.116V7.524l.075-.689.132-.951.784.4a.619.619,0,0,1,.06.023.589.589,0,0,1,.066.02h.028l.093.048.015,0a.947.947,0,0,1,.209.076l.038.019a.747.747,0,0,1,.146.032h.4l.011,0c.023-.011.044-.02.062-.027l.038-.019.013-.013.033-.034V6.391l0-.01-.011-.038a.719.719,0,0,1-.089-.066.641.641,0,0,1-.121-.064l-.1-.051c-.037-.019-.138-.054-.212-.079l-.034-.012-.033-.017c-.028-.014-.06-.033-.095-.053a.973.973,0,0,0-.118-.062l-.034-.012-.032-.017-.035-.016a1.251,1.251,0,0,1-.248-.143,1.19,1.19,0,0,1-.336-.261,1.418,1.418,0,0,1-.133-.162.592.592,0,0,0-.042-.054l-.056-.058-.035-.072c-.009-.019-.033-.06-.052-.093s-.051-.088-.074-.132a1.084,1.084,0,0,1-.129-.322c0-.018-.009-.036-.016-.057a1.286,1.286,0,0,1-.059-.442,1.681,1.681,0,0,1,.059-.513l.1-.324a1.241,1.241,0,0,1,.219-.44,2.1,2.1,0,0,1,.247-.294,1.151,1.151,0,0,1,.372-.278c.027-.017.054-.032.08-.046V1.334h1.838V2.1a.711.711,0,0,1,.136.038.8.8,0,0,1,.1.027l.566.146v.562L32.36,3.5l-.136.839L31.51,4.04a.63.63,0,0,1-.064-.021.759.759,0,0,1-.153-.038.8.8,0,0,1-.119-.028h-.092l-.07-.036h-.176l-.064.033-.005.012-.006.02V4l.035.036v.055a.623.623,0,0,1,.083.048.654.654,0,0,1,.139.072l.1.051c.037.019.139.054.212.079a1.148,1.148,0,0,1,.24.12l.043.026.03.01.032.017.035.016a1.251,1.251,0,0,1,.248.143,1.19,1.19,0,0,1,.336.261,1.418,1.418,0,0,1,.133.162.593.593,0,0,0,.042.054,1.093,1.093,0,0,1,.214.345l.008.018a1.088,1.088,0,0,1,.123.313c0,.018.009.036.016.057a1.286,1.286,0,0,1,.059.442,1.564,1.564,0,0,1-.059.514l-.125.386-.036.055c-.015.023-.029.051-.047.084a1.216,1.216,0,0,1-.151.238,2.1,2.1,0,0,1-.247.293l-.035.036-.041.028c-.024.016-.045.033-.066.049a1.254,1.254,0,0,1-.265.165c-.027.017-.054.032-.08.046Zm-.557-1.755h.006a.515.515,0,0,0,.116-.056l.056-.039.057-.02c.013-.008.039-.028.059-.043l.062-.047a.918.918,0,0,0,.117-.143l.027-.041.024-.024c.008-.013.02-.037.03-.056s.034-.066.057-.1l.087-.268a.987.987,0,0,0,.011-.206.349.349,0,0,0-.011-.134c-.015-.048-.026-.088-.034-.121,0-.016-.01-.039-.012-.045l0,0L31.814,6,31.8,5.971c-.011-.023-.022-.048-.034-.075s-.02-.046-.027-.06a1.471,1.471,0,0,1-.12-.148.594.594,0,0,0-.042-.054c-.02-.02-.046-.047-.06-.059l-.1-.035-.07-.072-.005,0,.221.227a.67.67,0,0,1,.151.25c.005.014.007.019.01.024l.05.1v.06a.879.879,0,0,1,.035.234v.18a.756.756,0,0,1-.211.492l-.1.108a.98.98,0,0,1-.22.177A.619.619,0,0,1,31.181,7.374ZM30.086,4.853l.055.019-.03-.029-.1-.108a.7.7,0,0,1-.192-.332.785.785,0,0,1-.053-.3v-.18a.668.668,0,0,1,.035-.2V3.673l-.071.221a1.233,1.233,0,0,0-.011.206.349.349,0,0,0,.011.134c.015.048.026.088.034.121,0,.016.01.039.012.045l0,0,.017.026.013.028c.009.019.033.06.052.093s.035.06.052.09c.032.038.057.073.077.1a.594.594,0,0,0,.042.054C30.046,4.814,30.072,4.841,30.086,4.853Z" transform="translate(2 4)" fill="#191919"/>
      <path id="https:_www.flaticon.com_free-icon_bars_547166_term_finance_page_1_position_8_page_1_position_8_related_id_547166_origin_search-3" data-name="https://www.flaticon.com/free-icon/bars_547166?term=finance&amp;page=1&amp;position=8&amp;page=1&amp;position=8&amp;related_id=547166&amp;origin=search" d="M28.2,11.973l-5.9,4.818a.612.612,0,0,1-.558.072l-7.33-3.128L6.841,19.308a.552.552,0,0,1-.314.108.5.5,0,0,1-.454-.252.586.586,0,0,1,.14-.791l7.818-5.753a.543.543,0,0,1,.524-.072l7.295,3.128L27.5,11.038a.582.582,0,0,1,.8.108.625.625,0,0,1-.1.827Z" transform="translate(2 4)" fill="#191919"/>
      <path id="https:_www.flaticon.com_free-icon_bars_547166_term_finance_page_1_position_8_page_1_position_8_related_id_547166_origin_search_-_Outline-3" data-name="https://www.flaticon.com/free-icon/bars_547166?term=finance&amp;page=1&amp;position=8&amp;page=1&amp;position=8&amp;related_id=547166&amp;origin=search - Outline" d="M27.856,10.426a1.041,1.041,0,0,1,.861.435,1.121,1.121,0,0,1-.207,1.506l-5.9,4.82a1.1,1.1,0,0,1-.66.214,1.03,1.03,0,0,1-.394-.075l-.006,0-7.067-3.016L7.124,19.72a1.044,1.044,0,0,1-.6.2,1,1,0,0,1-.876-.483,1.084,1.084,0,0,1,.265-1.462l7.814-5.75a1.043,1.043,0,0,1,.63-.21,1,1,0,0,1,.384.075l.007,0L21.767,15.1l5.44-4.462A1.1,1.1,0,0,1,27.856,10.426Zm.041,1.008a.091.091,0,0,0-.041-.008.109.109,0,0,0-.052.012l-5.873,4.818-7.566-3.245h0a.056.056,0,0,0-.025.006l-.008.006L6.509,18.776a.089.089,0,0,0-.025.1l.021.033s.009,0,.017,0a.154.154,0,0,0,.031-.017l7.8-5.736L21.931,16.4h.017A.16.16,0,0,0,22,16.391l5.9-4.818A.161.161,0,0,0,27.9,11.434Z" transform="translate(2 4)" fill="#191919"/>
      <path id="https:_www.flaticon.com_free-icon_bars_547166_term_finance_page_1_position_8_page_1_position_8_related_id_547166_origin_search-4" data-name="https://www.flaticon.com/free-icon/bars_547166?term=finance&amp;page=1&amp;position=8&amp;page=1&amp;position=8&amp;related_id=547166&amp;origin=search" d="M37,31.425a.56.56,0,0,1-.558.575H.558a.576.576,0,0,1,0-1.151H3.176V22.472a.56.56,0,0,1,.558-.575H8.9a.56.56,0,0,1,.558.575v8.378h1.885V19.092a.56.56,0,0,1,.558-.575h5.131a.56.56,0,0,1,.558.575V30.849h1.885V19.955a.56.56,0,0,1,.558-.575H25.2a.56.56,0,0,1,.558.575V30.849h1.885V14.2a.56.56,0,0,1,.558-.575h5.131a.56.56,0,0,1,.558.575V30.849h2.583a.513.513,0,0,1,.524.575ZM8.307,23.047H4.293v7.8H8.307Zm8.167-3.38H12.46V30.849h4.014Zm8.132.863H20.592V30.849h4.014Zm8.167-5.753H28.76V30.849h4.014Z" transform="translate(2 4)" fill="#191919"/>
      <path id="https:_www.flaticon.com_free-icon_bars_547166_term_finance_page_1_position_8_page_1_position_8_related_id_547166_origin_search_-_Outline-4" data-name="https://www.flaticon.com/free-icon/bars_547166?term=finance&amp;page=1&amp;position=8&amp;page=1&amp;position=8&amp;related_id=547166&amp;origin=search - Outline" d="M36.438,32.5H.558a1.075,1.075,0,0,1,0-2.151H2.676V22.472A1.056,1.056,0,0,1,3.735,21.4H8.9a1.056,1.056,0,0,1,1.058,1.075v7.878h.885V19.092A1.056,1.056,0,0,1,11.9,18.017h5.131a1.056,1.056,0,0,1,1.058,1.075V30.349h.885V19.955a1.056,1.056,0,0,1,1.058-1.075H25.2a1.056,1.056,0,0,1,1.058,1.075V30.349h.885V14.2A1.056,1.056,0,0,1,28.2,13.127h5.131A1.056,1.056,0,0,1,34.39,14.2V30.349h2.083a1.034,1.034,0,0,1,.77.338,1,1,0,0,1,.253.763A1.055,1.055,0,0,1,36.438,32.5ZM.558,31.349c-.054,0-.058.058-.058.075s0,.075.058.075h35.88c.054,0,.058-.058.058-.075V31.4l0-.027a.038.038,0,0,0,0-.016.042.042,0,0,0-.026-.006H33.39V14.2c0-.018,0-.075-.058-.075H28.2c-.054,0-.058.058-.058.075V31.349H25.258V19.955c0-.018,0-.075-.058-.075H20.034c-.054,0-.058.058-.058.075V31.349H17.091V19.092c0-.018,0-.075-.058-.075H11.9c-.054,0-.058.058-.058.075V31.349H8.959V22.472c0-.018,0-.075-.058-.075H3.735c-.054,0-.058.058-.058.075v8.878Zm32.715,0H28.26V14.278h5.014Zm-4.014-1h3.014V15.278H29.26Zm-4.153,1H20.092V20.03h5.014Zm-4.014-1h3.014V21.03H21.092Zm-12.286,1H3.793v-8.8H8.807Zm-4.014-1H7.807v-6.8H4.793Zm12.181,1H11.96V19.167h5.014Zm-4.014-1h3.014V20.167H12.96Z" transform="translate(2 4)" fill="#191919"/>
    </g>
  </g>
  <g id="Frame_20" data-name="Frame 20" transform="translate(0 64)">
    <text id="Financial_Advice" data-name="Financial Advice" transform="translate(0 4.16)" fill="#191919" font-size="22" font-family="SegoeUI-Bold, Segoe UI" font-weight="700"><tspan x="0" y="24">Financial Advice</tspan></text>
    <text id="Essentially_formula_for_how_a_business_is_going_to_compete_" data-name="Essentially formula for how a business is going to compete," transform="translate(0 48.818)" fill="rgba(25,25,25,0.7)" font-size="16" font-family="SegoeUI, Segoe UI" letter-spacing="-0.01em"><tspan x="0" y="17">Lorem ipsum, dolor sit amet </tspan><tspan x="0" y="42">consectetur adipisicing elit.</tspan></text>
  </g>
</svg>
