<svg id="Frame_21" data-name="Frame 21" xmlns="http://www.w3.org/2000/svg" width="227" height="158.818" viewBox="0 0 227 158.818">
  <g id="Icon">
    <g id="Frame_5" data-name="Frame 5">
      <rect id="Frame_5-2" data-name="Frame 5" width="40" height="40" fill="none"/>
      <path id="Vector" d="M35,22.771v1.741a1.281,1.281,0,0,1-1.278,1.282.249.249,0,0,0-.236.169,7.271,7.271,0,0,1-.369.894.251.251,0,0,0,.048.288,1.286,1.286,0,0,1,0,1.813l-1.227,1.231a1.276,1.276,0,0,1-1.807,0l0,0a.249.249,0,0,0-.285-.046,7.194,7.194,0,0,1-.891.37.249.249,0,0,0-.168.237,1.281,1.281,0,0,1-1.278,1.282H25.772a1.281,1.281,0,0,1-1.278-1.282.249.249,0,0,0-.168-.237,7.19,7.19,0,0,1-.891-.37.249.249,0,0,0-.287.048l0,0a1.276,1.276,0,0,1-1.8,0l-1.227-1.231a1.286,1.286,0,0,1,0-1.812.251.251,0,0,0,.048-.288,7.247,7.247,0,0,1-.369-.894.248.248,0,0,0-.236-.169,1.281,1.281,0,0,1-1.278-1.282V22.771a1.281,1.281,0,0,1,1.278-1.282.249.249,0,0,0,.236-.169,7.271,7.271,0,0,1,.369-.894.251.251,0,0,0-.048-.288,1.286,1.286,0,0,1,0-1.813L21.341,17.1a1.276,1.276,0,0,1,1.8,0l0,0a.249.249,0,0,0,.287.048,7.2,7.2,0,0,1,.891-.37.249.249,0,0,0,.168-.237,1.281,1.281,0,0,1,1.278-1.282h1.735a1.281,1.281,0,0,1,1.278,1.282.249.249,0,0,0,.168.237,7.2,7.2,0,0,1,.891.37.249.249,0,0,0,.285-.046l0,0a1.276,1.276,0,0,1,1.807,0l1.227,1.231a1.286,1.286,0,0,1,0,1.812.251.251,0,0,0-.048.288,7.242,7.242,0,0,1,.369.894.248.248,0,0,0,.236.169A1.281,1.281,0,0,1,35,22.771Zm-1.027,0a.251.251,0,0,0-.251-.251,1.275,1.275,0,0,1-1.209-.869,6.21,6.21,0,0,0-.317-.766,1.283,1.283,0,0,1,.242-1.474.252.252,0,0,0,0-.356l-1.227-1.231a.25.25,0,0,0-.352,0l0,0a1.273,1.273,0,0,1-1.469.242,6.16,6.16,0,0,0-.764-.317,1.279,1.279,0,0,1-.866-1.213.251.251,0,0,0-.251-.251H25.772a.251.251,0,0,0-.251.251,1.278,1.278,0,0,1-.867,1.213,6.174,6.174,0,0,0-.764.317,1.273,1.273,0,0,1-1.466-.239l0,0a.251.251,0,0,0-.354,0l-1.227,1.231a.252.252,0,0,0,0,.355,1.283,1.283,0,0,1,.242,1.474,6.207,6.207,0,0,0-.316.766,1.275,1.275,0,0,1-1.209.869.251.251,0,0,0-.251.251v1.741a.251.251,0,0,0,.251.251,1.275,1.275,0,0,1,1.209.869,6.211,6.211,0,0,0,.316.766,1.283,1.283,0,0,1-.242,1.474.252.252,0,0,0,0,.356l1.227,1.231a.25.25,0,0,0,.354,0l0,0a1.272,1.272,0,0,1,1.465-.238,6.168,6.168,0,0,0,.764.317,1.279,1.279,0,0,1,.866,1.213.251.251,0,0,0,.251.251h1.735a.251.251,0,0,0,.251-.251,1.278,1.278,0,0,1,.866-1.213,6.182,6.182,0,0,0,.764-.317,1.273,1.273,0,0,1,1.469.242l0,0a.25.25,0,0,0,.353,0l1.227-1.231a.252.252,0,0,0,0-.355A1.283,1.283,0,0,1,32.2,26.4a6.213,6.213,0,0,0,.316-.766,1.275,1.275,0,0,1,1.209-.869.251.251,0,0,0,.251-.251Z" transform="translate(3 3)" fill="#191919"/>
      <path id="Vector_-_Outline" data-name="Vector - Outline" d="M25.772,14.755h1.735a1.782,1.782,0,0,1,1.769,1.6c.215.078.428.167.635.264a1.777,1.777,0,0,1,2.381.122l1.227,1.231a1.787,1.787,0,0,1,.12,2.385c.1.209.186.423.264.64a1.783,1.783,0,0,1,1.6,1.772v1.741a1.782,1.782,0,0,1-1.6,1.772c-.079.217-.167.431-.264.64a1.788,1.788,0,0,1-.12,2.385L32.292,30.54a1.777,1.777,0,0,1-2.381.122c-.207.1-.42.186-.635.264a1.782,1.782,0,0,1-1.769,1.6H25.772A1.782,1.782,0,0,1,24,30.926c-.215-.078-.428-.167-.635-.264a1.777,1.777,0,0,1-2.381-.122L19.76,29.31a1.787,1.787,0,0,1-.12-2.385c-.1-.209-.186-.423-.264-.64a1.783,1.783,0,0,1-1.6-1.772V22.771A1.782,1.782,0,0,1,19.376,21c.079-.217.167-.431.264-.64a1.788,1.788,0,0,1,.12-2.385l1.227-1.231a1.777,1.777,0,0,1,2.381-.122c.207-.1.42-.186.635-.264A1.781,1.781,0,0,1,25.772,14.755Zm4.182,2.915a.752.752,0,0,1-.333-.078,6.7,6.7,0,0,0-.829-.345.749.749,0,0,1-.508-.711.78.78,0,0,0-.778-.782H25.772a.78.78,0,0,0-.778.782.749.749,0,0,1-.508.711,6.693,6.693,0,0,0-.829.345.748.748,0,0,1-.863-.141l0,0a.776.776,0,0,0-1.1,0L20.469,18.68a.785.785,0,0,0,0,1.107.75.75,0,0,1,.142.863,6.767,6.767,0,0,0-.344.832.748.748,0,0,1-.71.509.78.78,0,0,0-.778.782v1.741a.78.78,0,0,0,.778.782.748.748,0,0,1,.71.509,6.739,6.739,0,0,0,.344.831.751.751,0,0,1-.142.863.785.785,0,0,0,0,1.106L21.7,29.834a.776.776,0,0,0,1.1,0l0,0h0a.749.749,0,0,1,.863-.143,6.692,6.692,0,0,0,.83.345.749.749,0,0,1,.508.711.78.78,0,0,0,.778.782h1.735a.78.78,0,0,0,.777-.782.749.749,0,0,1,.508-.711,6.691,6.691,0,0,0,.829-.344.748.748,0,0,1,.858.137l0,0a.776.776,0,0,0,1.1,0L32.811,28.6a.785.785,0,0,0,0-1.107.75.75,0,0,1-.142-.863,6.771,6.771,0,0,0,.344-.832.748.748,0,0,1,.71-.509.78.78,0,0,0,.778-.782V22.771a.778.778,0,0,0-.229-.553.77.77,0,0,0-.549-.229.748.748,0,0,1-.71-.51,6.739,6.739,0,0,0-.344-.831.751.751,0,0,1,.142-.863.785.785,0,0,0,0-1.106l-1.227-1.231a.776.776,0,0,0-1.091-.008l-.013.013A.746.746,0,0,1,29.954,17.67Zm-4.182-1.885h1.735a.752.752,0,0,1,.751.751.779.779,0,0,0,.527.74,6.661,6.661,0,0,1,.826.343.772.772,0,0,0,.893-.148l.009-.009a.746.746,0,0,1,.522-.212h0a.745.745,0,0,1,.531.22L32.793,18.7a.753.753,0,0,1,0,1.062.783.783,0,0,0-.147.9,6.713,6.713,0,0,1,.342.828.775.775,0,0,0,.735.529.752.752,0,0,1,.751.751v1.741a.752.752,0,0,1-.751.751.775.775,0,0,0-.735.529,6.715,6.715,0,0,1-.342.828.783.783,0,0,0,.148.9.753.753,0,0,1,0,1.062l-1.227,1.231a.75.75,0,0,1-1.057.006L30.5,29.8a.772.772,0,0,0-.885-.141,6.683,6.683,0,0,1-.826.343.779.779,0,0,0-.527.74.752.752,0,0,1-.751.751H25.772a.752.752,0,0,1-.751-.751.779.779,0,0,0-.527-.74,6.671,6.671,0,0,1-.826-.343.772.772,0,0,0-.89.145l0,0a.75.75,0,0,1-1.061,0l-1.227-1.231a.753.753,0,0,1,0-1.062.783.783,0,0,0,.147-.9,6.714,6.714,0,0,1-.342-.828.775.775,0,0,0-.735-.529.752.752,0,0,1-.751-.751V22.772a.752.752,0,0,1,.751-.751.775.775,0,0,0,.735-.529,6.708,6.708,0,0,1,.342-.828.783.783,0,0,0-.148-.9.753.753,0,0,1,0-1.062l1.227-1.231a.751.751,0,0,1,1.06,0l0,0a.772.772,0,0,0,.89.145,6.676,6.676,0,0,1,.826-.343.779.779,0,0,0,.527-.74A.752.752,0,0,1,25.772,15.785Zm1.5,1H26a1.777,1.777,0,0,1-1.189,1.438,5.671,5.671,0,0,0-.7.292,1.781,1.781,0,0,1-.789.186,1.761,1.761,0,0,1-1.068-.358l-.9.9a1.783,1.783,0,0,1,.174,1.861,5.7,5.7,0,0,0-.291.7A1.775,1.775,0,0,1,19.806,23v1.278a1.775,1.775,0,0,1,1.434,1.192,5.709,5.709,0,0,0,.291.7,1.783,1.783,0,0,1-.173,1.861l.9.9a1.762,1.762,0,0,1,1.068-.358,1.781,1.781,0,0,1,.789.185,5.668,5.668,0,0,0,.7.292A1.777,1.777,0,0,1,26,30.5h1.271a1.777,1.777,0,0,1,1.189-1.438,5.68,5.68,0,0,0,.7-.292,1.782,1.782,0,0,1,.789-.185,1.761,1.761,0,0,1,1.068.358l.9-.9a1.783,1.783,0,0,1-.173-1.861,5.709,5.709,0,0,0,.291-.7,1.775,1.775,0,0,1,1.434-1.192V23a1.775,1.775,0,0,1-1.434-1.192,5.709,5.709,0,0,0-.291-.7,1.783,1.783,0,0,1,.173-1.861l-.9-.9a1.761,1.761,0,0,1-1.068.358,1.781,1.781,0,0,1-.789-.185,5.66,5.66,0,0,0-.7-.292A1.777,1.777,0,0,1,27.275,16.785Z" transform="translate(3 3)" fill="#191919"/>
      <path id="Vector-2" data-name="Vector" d="M30.527,23.642a3.888,3.888,0,1,1-3.888-3.9A3.9,3.9,0,0,1,30.527,23.642Zm-1.027,0a2.861,2.861,0,1,0-2.861,2.87,2.868,2.868,0,0,0,2.861-2.87Z" transform="translate(3 3)" fill="#191919"/>
      <path id="Vector_-_Outline-2" data-name="Vector - Outline" d="M26.64,19.242a4.4,4.4,0,1,1-4.387,4.4A4.4,4.4,0,0,1,26.64,19.242Zm0,7.8a3.4,3.4,0,1,0-3.387-3.4A3.4,3.4,0,0,0,26.64,27.042Zm0-6.769a3.37,3.37,0,1,1-3.361,3.37A3.369,3.369,0,0,1,26.64,20.272ZM29,23.642a2.361,2.361,0,1,0-2.361,2.37A2.368,2.368,0,0,0,29,23.642Z" transform="translate(3 3)" fill="#191919"/>
      <path id="Vector-3" data-name="Vector" d="M20.171,30.848a.516.516,0,0,1-.188.7l-3.606,2.089a2.681,2.681,0,0,1-2.681,0L1.341,26.485A2.7,2.7,0,0,1,0,24.156V9.844a2.706,2.706,0,0,1,1.341-2.33L13.7.359a2.682,2.682,0,0,1,2.681,0L28.732,7.515a2.706,2.706,0,0,1,1.341,2.33v5.25a.513.513,0,1,1-1.027,0V9.844a1.655,1.655,0,0,0-.036-.342L15.55,17.3V32.888a1.645,1.645,0,0,0,.314-.14L19.47,30.66a.513.513,0,0,1,.7.189ZM14.523,17.3,1.063,9.5a1.655,1.655,0,0,0-.036.342V24.156a1.665,1.665,0,0,0,.827,1.437l12.355,7.156a1.64,1.64,0,0,0,.314.14Zm.513-.892L28.5,8.61a1.644,1.644,0,0,0-.278-.2L15.864,1.251a1.655,1.655,0,0,0-1.655,0L1.854,8.407a1.643,1.643,0,0,0-.277.2Z" transform="translate(3 3)" fill="#191919"/>
      <path id="Vector_-_Outline-3" data-name="Vector - Outline" d="M15.036,34.5a3.179,3.179,0,0,1-1.591-.427L1.09,26.918A3.2,3.2,0,0,1-.5,24.156V9.844A3.2,3.2,0,0,1,1.09,7.082L13.445-.073a3.182,3.182,0,0,1,3.183,0L28.982,7.082a3.2,3.2,0,0,1,1.59,2.762v5.25a1.013,1.013,0,1,1-2.027,0V10.348l-12.5,7.237V32.063l3.169-1.836a1.015,1.015,0,0,1,1.015,1.757l-3.606,2.089A3.178,3.178,0,0,1,15.036,34.5Zm-.014-1h.027V17.009L29.287,8.763l-.015-.025L15.036,16.983.8,8.738l-.015.025,14.237,8.246ZM.646,9.059A2.19,2.19,0,0,0,.5,9.844V24.156a2.2,2.2,0,0,0,1.091,1.9l12.355,7.156a2.172,2.172,0,0,0,.765.268l-.344-.112a2.146,2.146,0,0,1-.409-.182L1.6,26.026a2.167,2.167,0,0,1-1.077-1.87V9.844A2.161,2.161,0,0,1,.574,9.4Zm19.08,22.031-.005,0-3.606,2.089a2.151,2.151,0,0,1-.409.182l-.342.112a2.171,2.171,0,0,0,.764-.267l3.606-2.089a.016.016,0,0,0,.005-.022A.013.013,0,0,0,19.726,31.091ZM1.527,10.348V24.156a1.164,1.164,0,0,0,.578,1l11.918,6.9V17.586Zm1.011-1.76,12.5,7.239,12.5-7.239-11.922-6.9a1.155,1.155,0,0,0-1.153,0Zm26.889.471L29.5,9.4a2.16,2.16,0,0,1,.047.446v5.25a.013.013,0,1,0,.027,0V9.844A2.19,2.19,0,0,0,29.427,9.06ZM15.036.5a2.177,2.177,0,0,0-1.09.292L1.591,7.948a2.177,2.177,0,0,0-.61.526l.261-.235A2.149,2.149,0,0,1,1.6,7.974L13.958.819a2.155,2.155,0,0,1,2.156,0L28.469,7.974a2.148,2.148,0,0,1,.362.264l.261.235a2.177,2.177,0,0,0-.61-.526L16.126.792A2.177,2.177,0,0,0,15.036.5Z" transform="translate(3 3)" fill="#191919"/>
    </g>
  </g>
  <g id="Frame_20" data-name="Frame 20" transform="translate(0 64)">
    <text id="Risk_Management" data-name="Risk Management" transform="translate(0 4.16)" fill="#191919" font-size="22" font-family="SegoeUI-Bold, Segoe UI" font-weight="700"><tspan x="0" y="24">Risk Management</tspan></text>
    <text id="Essentially_formula_for_how_a_business_is_going_to_compete_" data-name="Essentially formula for how a business is going to compete," transform="translate(0 48.818)" fill="rgba(25,25,25,0.7)" font-size="16" font-family="SegoeUI, Segoe UI" letter-spacing="-0.01em"><tspan x="0" y="17">Lorem ipsum, dolor sit amet </tspan><tspan x="0" y="42">consectetur adipisicing elit.</tspan></text>
  </g>
</svg>
