<svg id="Frame_21" data-name="Frame 21" xmlns="http://www.w3.org/2000/svg" width="227" height="158.818" viewBox="0 0 227 158.818">
  <g id="Icon">
    <g id="Frame_3" data-name="Frame 3">
      <rect id="Frame_3-2" data-name="Frame 3" width="40" height="40" fill="none"/>
      <path id="https:_www.flaticon.com_free-icon_idea_554745_related_id_554745" data-name="https://www.flaticon.com/free-icon/idea_554745?related_id=554745" d="M28.952,17.215a11.08,11.08,0,0,1-1.581,5.706,11.429,11.429,0,0,1-4.145,4.037,2.89,2.89,0,0,0-1.531,2.5v4.412a1.763,1.763,0,0,1-1.775,1.747H19.88v.633A1.763,1.763,0,0,1,18.1,38H16.9a1.763,1.763,0,0,1-1.775-1.747V35.62h-.039a1.763,1.763,0,0,1-1.775-1.747V29.367A2.722,2.722,0,0,0,11.846,27,11.382,11.382,0,0,1,7.42,22.555,11.093,11.093,0,0,1,9.3,9.361a11.564,11.564,0,0,1,15.832-.543,11.2,11.2,0,0,1,3.818,8.4ZM18.749,35.62h-2.5v.633a.639.639,0,0,0,.644.633H18.1a.639.639,0,0,0,.644-.633Zm1.814-4.759H14.437v1.266H18.1a.557.557,0,1,1,0,1.113H14.437v.633a.639.639,0,0,0,.644.633h4.838a.639.639,0,0,0,.644-.633V33.24h-.039a.557.557,0,1,1,0-1.113h.039Zm3.495-5.822a1.854,1.854,0,0,0-.362-.209l-1.569-.686a8.544,8.544,0,0,1-9.255,0L11.3,24.83a1.864,1.864,0,0,0-.361.209,10.408,10.408,0,0,0,1.461.989,3.869,3.869,0,0,1,2.032,3.339v.381h6.126v-.286a3.988,3.988,0,0,1,2.1-3.468,10.37,10.37,0,0,0,1.4-.954Zm-9.2-8.73a3.351,3.351,0,0,1-1.028.656v.25a3.668,3.668,0,0,0,7.335,0V16.209c-1.561.185-4.125.153-5.882-1.575a.55.55,0,0,1,0-.787.572.572,0,0,1,.8,0c.573.564,2.273,1.8,5.661,1.146a.036.036,0,0,0,.025-.037v-.121A3.642,3.642,0,0,0,18.1,11.227H16.9a3.642,3.642,0,0,0-3.668,3.608v1.1a.111.111,0,0,0,.01.05l.015,0a2.041,2.041,0,0,0,.84-.494.572.572,0,0,1,.8.031.55.55,0,0,1-.032.787Zm-.268,7.084-.449.2a7.41,7.41,0,0,0,6.714,0l-.449-.2a1.747,1.747,0,0,1-1.054-1.6V21.57a4.869,4.869,0,0,1-3.707,0V21.8a1.747,1.747,0,0,1-1.054,1.6ZM27.82,17.215A10.1,10.1,0,0,0,24.38,9.647a10.3,10.3,0,0,0-6.865-2.585,11.027,11.027,0,0,0-1.2.066,10.337,10.337,0,0,0-6.2,3.009,9.993,9.993,0,0,0-1.7,11.888A10.174,10.174,0,0,0,10.1,24.278a3,3,0,0,1,.744-.466l3.288-1.438a.633.633,0,0,0,.382-.579v-.888A4.686,4.686,0,0,1,12.7,17.215v-.246a1.113,1.113,0,0,1-.153-.1,1.16,1.16,0,0,1-.452-.935v-1.1a4.766,4.766,0,0,1,4.8-4.721H18.1a4.766,4.766,0,0,1,4.8,4.721v.121a1.151,1.151,0,0,1-.6,1.008v1.25a4.686,4.686,0,0,1-1.814,3.693V21.8a.633.633,0,0,0,.382.579l3.288,1.438a3.007,3.007,0,0,1,.742.466,10.2,10.2,0,0,0,1.5-1.924,9.981,9.981,0,0,0,1.423-5.139Z" transform="translate(3 1)" fill="#191919"/>
      <path id="https:_www.flaticon.com_free-icon_idea_554745_related_id_554745_-_Outline" data-name="https://www.flaticon.com/free-icon/idea_554745?related_id=554745 - Outline" d="M17.519,5.448a11.856,11.856,0,0,1,7.946,2.994,11.7,11.7,0,0,1,3.987,8.773A11.58,11.58,0,0,1,27.8,23.178a11.93,11.93,0,0,1-4.327,4.214,2.4,2.4,0,0,0-1.278,2.07v4.412a2.258,2.258,0,0,1-1.814,2.2v.18A2.264,2.264,0,0,1,18.1,38.5H16.9a2.264,2.264,0,0,1-2.275-2.247v-.18a2.258,2.258,0,0,1-1.814-2.2V29.367a2.228,2.228,0,0,0-1.2-1.934A11.881,11.881,0,0,1,6.982,22.8,11.593,11.593,0,0,1,8.947,9.009a11.98,11.98,0,0,1,7.187-3.485A12.775,12.775,0,0,1,17.519,5.448Zm2.4,29.672a1.263,1.263,0,0,0,1.275-1.247V29.462a3.384,3.384,0,0,1,1.784-2.939,10.928,10.928,0,0,0,3.964-3.859,10.58,10.58,0,0,0,1.51-5.448A10.7,10.7,0,0,0,24.8,9.193a10.87,10.87,0,0,0-7.285-2.745,11.772,11.772,0,0,0-1.275.07A10.977,10.977,0,0,0,9.658,9.712a10.593,10.593,0,0,0-1.8,12.6A10.882,10.882,0,0,0,12.09,26.56a3.215,3.215,0,0,1,1.716,2.807v4.507a1.263,1.263,0,0,0,1.275,1.247h.539v1.133A1.263,1.263,0,0,0,16.9,37.5H18.1a1.263,1.263,0,0,0,1.275-1.247V35.12Zm-2.4-28.558a10.735,10.735,0,0,1,7.2,2.71,10.6,10.6,0,0,1,3.61,7.943,10.481,10.481,0,0,1-1.495,5.4,10.705,10.705,0,0,1-1.573,2.018l-.326.329-.353-.3a2.5,2.5,0,0,0-.618-.388l-3.288-1.438a1.133,1.133,0,0,1-.682-1.037V20.665l.192-.15a4.176,4.176,0,0,0,1.623-3.3V15.668l.261-.142a.65.65,0,0,0,.344-.569v-.121a4.266,4.266,0,0,0-4.3-4.221H16.9a4.266,4.266,0,0,0-4.3,4.221v1.1a.665.665,0,0,0,.254.537.615.615,0,0,0,.084.054l.266.141v.547a4.175,4.175,0,0,0,1.623,3.3l.192.15V21.8a1.133,1.133,0,0,1-.682,1.037l-3.288,1.438a2.494,2.494,0,0,0-.62.388l-.353.3-.327-.33a10.676,10.676,0,0,1-1.769-2.364A10.493,10.493,0,0,1,9.758,9.785a10.839,10.839,0,0,1,6.5-3.155A11.573,11.573,0,0,1,17.514,6.562Zm7.325,17.052A9.656,9.656,0,0,0,25.968,22.1a9.481,9.481,0,0,0,1.352-4.882,9.6,9.6,0,0,0-3.271-7.192,9.749,9.749,0,0,0-6.535-2.461,10.573,10.573,0,0,0-1.146.063,9.836,9.836,0,0,0-5.9,2.864,9.5,9.5,0,0,0-.31,13.125,3.485,3.485,0,0,1,.485-.259l3.288-1.438a.134.134,0,0,0,.083-.121v-.652A5.161,5.161,0,0,1,12.2,17.235a1.658,1.658,0,0,1-.6-1.3v-1.1a5.267,5.267,0,0,1,5.3-5.221H18.1a5.267,5.267,0,0,1,5.3,5.221v.121a1.644,1.644,0,0,1-.6,1.272v.987a5.161,5.161,0,0,1-1.814,3.929V21.8a.134.134,0,0,0,.083.121l3.288,1.438A3.456,3.456,0,0,1,24.839,23.614ZM16.9,10.727H18.1a4.143,4.143,0,0,1,4.168,4.108v.121a.536.536,0,0,1-.43.527,10.2,10.2,0,0,1-1.935.2A5.756,5.756,0,0,1,15.735,14.2a.073.073,0,0,0-.1,0,.05.05,0,0,0,0,.074,5.87,5.87,0,0,0,4.282,1.507,10.188,10.188,0,0,0,1.191-.072l.559-.066v1.569a4.168,4.168,0,0,1-8.335,0v-.592l.318-.124a2.862,2.862,0,0,0,.873-.561.052.052,0,0,0,.018-.037.05.05,0,0,0-.015-.037.073.073,0,0,0-.1,0,2.528,2.528,0,0,1-1.052.608.594.594,0,0,1-.1.017l-.331.029-.155-.294a.61.61,0,0,1-.067-.284v-1.1A4.143,4.143,0,0,1,16.9,10.727Zm4.366,3.843A3.149,3.149,0,0,0,18.1,11.727H16.9a3.142,3.142,0,0,0-3.168,3.108v.311l.029-.026a1.072,1.072,0,0,1,1.11-.2,1.05,1.05,0,0,1,.069-1.426,1.072,1.072,0,0,1,1.5,0,4.823,4.823,0,0,0,3.47,1.191A8.838,8.838,0,0,0,21.261,14.571Zm-1.343,2.214a7.215,7.215,0,0,1-4.491-1.364,1.051,1.051,0,0,1-.23,1.259,4.059,4.059,0,0,1-.863.608,3.169,3.169,0,0,0,6.335-.071v-.457C20.415,16.776,20.164,16.784,19.918,16.784Zm-4.771,4.038.691.286a4.369,4.369,0,0,0,3.324,0l.691-.286V21.8a1.247,1.247,0,0,0,.755,1.138l1.416.619-.94.48a7.91,7.91,0,0,1-3.585.859,7.8,7.8,0,0,1-3.585-.859l-.939-.481,1.416-.619a1.247,1.247,0,0,0,.755-1.138ZM17.5,22.436a5.344,5.344,0,0,1-1.4-.185,2.246,2.246,0,0,1-.792,1.287,6.962,6.962,0,0,0,4.385,0,2.246,2.246,0,0,1-.792-1.287A5.345,5.345,0,0,1,17.5,22.436Zm4.581,1.142,1.815.794a2.361,2.361,0,0,1,.459.265l.519.384-.5.406a10.9,10.9,0,0,1-1.465,1,3.494,3.494,0,0,0-1.844,3.034v.786H13.937v-.881a3.369,3.369,0,0,0-1.776-2.9,10.942,10.942,0,0,1-1.532-1.036l-.5-.406.52-.385a2.366,2.366,0,0,1,.458-.266l1.814-.793.226.146a8.044,8.044,0,0,0,8.712,0Zm1.031,1.542-.943-.412a9.049,9.049,0,0,1-9.339,0l-.941.412q.37.253.76.472a4.379,4.379,0,0,1,2.286,3.656h5.133a4.5,4.5,0,0,1,2.344-3.689Q22.77,25.355,23.112,25.12Zm-9.175,5.24h7.126v2.266h-.539a.057.057,0,1,0,0,.113h.539v1.133a1.12,1.12,0,0,1-.338.8,1.142,1.142,0,0,1-.806.329H15.081a1.14,1.14,0,0,1-1.144-1.133V32.74H18.1a.057.057,0,1,0,0-.113H13.937Zm6.126,1H14.937v.266H18.1a1.057,1.057,0,1,1,0,2.113H14.937v.133a.139.139,0,0,0,.144.133h4.838a.148.148,0,0,0,.1-.042.126.126,0,0,0,.039-.091v-.237a1.053,1.053,0,0,1,0-1.905ZM15.752,35.12h3.5v1.133A1.14,1.14,0,0,1,18.1,37.387H16.9a1.14,1.14,0,0,1-1.144-1.133Zm2.5,1h-1.5v.133a.139.139,0,0,0,.144.133H18.1a.139.139,0,0,0,.144-.133Z" transform="translate(3 1)" fill="#191919"/>
      <path id="https:_www.flaticon.com_free-icon_idea_554745_related_id_554745-2" data-name="https://www.flaticon.com/free-icon/idea_554745?related_id=554745" d="M18.066.557v3.57a.566.566,0,0,1-1.132,0V.557a.566.566,0,0,1,1.132,0Z" transform="translate(3 1)" fill="#191919"/>
      <path id="https:_www.flaticon.com_free-icon_idea_554745_related_id_554745_-_Outline-2" data-name="https://www.flaticon.com/free-icon/idea_554745?related_id=554745 - Outline" d="M17.5-.5A1.062,1.062,0,0,1,18.566.557v3.57a1.066,1.066,0,0,1-2.132,0V.557A1.062,1.062,0,0,1,17.5-.5Zm0,4.683a.062.062,0,0,0,.066-.057V.557a.067.067,0,0,0-.132,0v3.57A.062.062,0,0,0,17.5,4.183Z" transform="translate(3 1)" fill="#191919"/>
      <path id="https:_www.flaticon.com_free-icon_idea_554745_related_id_554745-3" data-name="https://www.flaticon.com/free-icon/idea_554745?related_id=554745" d="M35,17.215a.561.561,0,0,1-.566.557H30.805a.557.557,0,1,1,0-1.113h3.629A.561.561,0,0,1,35,17.215Z" transform="translate(3 1)" fill="#191919"/>
      <path id="https:_www.flaticon.com_free-icon_idea_554745_related_id_554745_-_Outline-3" data-name="https://www.flaticon.com/free-icon/idea_554745?related_id=554745 - Outline" d="M30.805,16.159h3.629a1.057,1.057,0,1,1,0,2.113H30.805a1.057,1.057,0,1,1,0-2.113Zm3.629,1.113a.057.057,0,1,0,0-.113H30.805a.057.057,0,1,0,0,.113Z" transform="translate(3 1)" fill="#191919"/>
      <path id="https:_www.flaticon.com_free-icon_idea_554745_related_id_554745-4" data-name="https://www.flaticon.com/free-icon/idea_554745?related_id=554745" d="M4.76,17.215a.561.561,0,0,1-.566.557H.566a.557.557,0,1,1,0-1.113H4.195A.561.561,0,0,1,4.76,17.215Z" transform="translate(3 1)" fill="#191919"/>
      <path id="https:_www.flaticon.com_free-icon_idea_554745_related_id_554745_-_Outline-4" data-name="https://www.flaticon.com/free-icon/idea_554745?related_id=554745 - Outline" d="M.566,16.159H4.195a1.057,1.057,0,1,1,0,2.113H.566a1.057,1.057,0,1,1,0-2.113Zm3.629,1.113a.057.057,0,1,0,0-.113H.566a.057.057,0,1,0,0,.113Z" transform="translate(3 1)" fill="#191919"/>
      <path id="https:_www.flaticon.com_free-icon_idea_554745_related_id_554745-5" data-name="https://www.flaticon.com/free-icon/idea_554745?related_id=554745" d="M29.874,5.829,27.308,8.354a.572.572,0,0,1-.8,0,.55.55,0,0,1,0-.787l2.566-2.524a.572.572,0,0,1,.8,0A.55.55,0,0,1,29.874,5.829Z" transform="translate(3 1)" fill="#191919"/>
      <path id="https:_www.flaticon.com_free-icon_idea_554745_related_id_554745_-_Outline-5" data-name="https://www.flaticon.com/free-icon/idea_554745?related_id=554745 - Outline" d="M29.474,4.379a1.064,1.064,0,0,1,.751.307,1.05,1.05,0,0,1,0,1.5L27.659,8.71a1.072,1.072,0,0,1-1.5,0,1.05,1.05,0,0,1,0-1.5l2.566-2.524A1.064,1.064,0,0,1,29.474,4.379ZM26.908,8.017A.069.069,0,0,0,26.958,8l2.566-2.524a.05.05,0,0,0,0-.074.072.072,0,0,0-.1,0L26.859,7.923a.05.05,0,0,0,0,.074A.069.069,0,0,0,26.908,8.017Z" transform="translate(3 1)" fill="#191919"/>
      <path id="https:_www.flaticon.com_free-icon_idea_554745_related_id_554745-6" data-name="https://www.flaticon.com/free-icon/idea_554745?related_id=554745" d="M8.492,26.864,5.926,29.388a.572.572,0,0,1-.8,0,.55.55,0,0,1,0-.787l2.566-2.524a.572.572,0,0,1,.8,0,.55.55,0,0,1,0,.787Z" transform="translate(3 1)" fill="#191919"/>
      <path id="https:_www.flaticon.com_free-icon_idea_554745_related_id_554745_-_Outline-6" data-name="https://www.flaticon.com/free-icon/idea_554745?related_id=554745 - Outline" d="M8.092,25.414a1.064,1.064,0,0,1,.751.307,1.05,1.05,0,0,1,0,1.5L6.276,29.744a1.072,1.072,0,0,1-1.5,0,1.05,1.05,0,0,1,0-1.5L7.341,25.72A1.064,1.064,0,0,1,8.092,25.414ZM5.526,29.051a.069.069,0,0,0,.049-.019l2.566-2.524a.05.05,0,0,0,0-.074.073.073,0,0,0-.1,0L5.476,28.957a.05.05,0,0,0,0,.074A.069.069,0,0,0,5.526,29.051Z" transform="translate(3 1)" fill="#191919"/>
      <path id="https:_www.flaticon.com_free-icon_idea_554745_related_id_554745-7" data-name="https://www.flaticon.com/free-icon/idea_554745?related_id=554745" d="M29.874,29.388a.572.572,0,0,1-.8,0l-2.566-2.524a.55.55,0,0,1,0-.787.572.572,0,0,1,.8,0L29.874,28.6a.55.55,0,0,1,0,.787Z" transform="translate(3 1)" fill="#191919"/>
      <path id="https:_www.flaticon.com_free-icon_idea_554745_related_id_554745_-_Outline-7" data-name="https://www.flaticon.com/free-icon/idea_554745?related_id=554745 - Outline" d="M29.474,30.051a1.064,1.064,0,0,1-.751-.307L26.158,27.22a1.05,1.05,0,0,1,0-1.5,1.072,1.072,0,0,1,1.5,0l2.566,2.524a1.05,1.05,0,0,1,0,1.5A1.064,1.064,0,0,1,29.474,30.051Zm-2.566-3.637a.069.069,0,0,0-.049.019.05.05,0,0,0,0,.074l2.566,2.524a.072.072,0,0,0,.1,0,.051.051,0,0,0,.017-.037.051.051,0,0,0-.016-.037l-2.566-2.524A.069.069,0,0,0,26.908,26.414Z" transform="translate(3 1)" fill="#191919"/>
      <path id="https:_www.flaticon.com_free-icon_idea_554745_related_id_554745-8" data-name="https://www.flaticon.com/free-icon/idea_554745?related_id=554745" d="M8.492,8.354a.572.572,0,0,1-.8,0L5.126,5.829a.55.55,0,0,1,0-.787.572.572,0,0,1,.8,0L8.492,7.566a.55.55,0,0,1,0,.787Z" transform="translate(3 1)" fill="#191919"/>
      <path id="https:_www.flaticon.com_free-icon_idea_554745_related_id_554745_-_Outline-8" data-name="https://www.flaticon.com/free-icon/idea_554745?related_id=554745 - Outline" d="M8.092,9.017a1.064,1.064,0,0,1-.751-.307L4.775,6.186a1.05,1.05,0,0,1,0-1.5,1.072,1.072,0,0,1,1.5,0L8.842,7.21a1.05,1.05,0,0,1,0,1.5A1.064,1.064,0,0,1,8.092,9.017ZM5.526,5.379a.069.069,0,0,0-.049.019.05.05,0,0,0,0,.074L8.042,8a.072.072,0,0,0,.1,0,.05.05,0,0,0,0-.074L5.575,5.4A.069.069,0,0,0,5.526,5.379Z" transform="translate(3 1)" fill="#191919"/>
    </g>
  </g>
  <g id="Frame_20" data-name="Frame 20" transform="translate(0 64)">
    <text id="Startup_Business" data-name="Startup Business" transform="translate(0 4.16)" fill="#191919" font-size="22" font-family="SegoeUI-Bold, Segoe UI" font-weight="700"><tspan x="0" y="24">Startup Business</tspan></text>
    <text id="Essentially_formula_for_how_a_business_is_going_to_compete_" data-name="Essentially formula for how a business is going to compete," transform="translate(0 48.818)" fill="rgba(25,25,25,0.7)" font-size="16" font-family="SegoeUI, Segoe UI" letter-spacing="-0.01em"><tspan x="0" y="17">Lorem ipsum, dolor sit amet </tspan><tspan x="0" y="42">consectetur adipisicing elit.</tspan></text>
  </g>
</svg>
