<svg xmlns="http://www.w3.org/2000/svg" width="420" height="62.818" viewBox="0 0 420 62.818">
  <g id="List_02" data-name="List 02" transform="translate(-300 -4190)">
    <g id="Group_1000004873" data-name="Group 1000004873">
      <g id="text">
        <text id="Strategic_Planning" data-name="Strategic Planning" transform="translate(384 4194.16)" fill="#191919" font-size="22" font-family="SegoeUI-Bold, Segoe UI" font-weight="700"><tspan x="0" y="24">Strategic Planning</tspan></text>
        <text id="Dominion_fowle_in_there_light_she_does_lights." data-name="Dominion fowle in there light she does lights." transform="translate(384 4231.818)" fill="rgba(25,25,25,0.7)" font-size="16" font-family="SegoeUI, Segoe UI" letter-spacing="-0.01em"><tspan x="0" y="17">Lorem, ipsum dolor sit amet consectetur.</tspan></text>
      </g>
      <g id="Group_1000004871" data-name="Group 1000004871">
        <circle id="Ellipse_9" data-name="Ellipse 9" cx="30" cy="30" r="30" transform="translate(300 4190)" fill="#fff"/>
        <path id="Ellipse_9_-_Outline" data-name="Ellipse 9 - Outline" d="M30,1A29.008,29.008,0,0,0,18.712,56.721,29.008,29.008,0,0,0,41.288,3.279,28.818,28.818,0,0,0,30,1m0-1A30,30,0,1,1,0,30,30,30,0,0,1,30,0Z" transform="translate(300 4190)" fill="rgba(25,25,25,0.1)"/>
        <g id="Group_1000004868" data-name="Group 1000004868">
          <g id="Frame_23" data-name="Frame 23" transform="translate(314 4204)">
            <path id="Frame_23-2" data-name="Frame 23" d="M0,0H32V32H0Z" fill="#fff"/>
            <path id="https:_www.flaticon.com_free-icon_hexagon_5555876_related_id_5555876" data-name="https://www.flaticon.com/free-icon/hexagon_5555876?related_id=5555876" d="M25.914,9.438a1.862,1.862,0,0,1,0,1.134l-4.282,13.2A1.787,1.787,0,0,1,21,24.66,1.7,1.7,0,0,1,19.98,25H6.02A1.7,1.7,0,0,1,5,24.66a1.787,1.787,0,0,1-.631-.888L.09,10.572a1.863,1.863,0,0,1,0-1.135A1.808,1.808,0,0,1,.74,8.523L12,.33a1.679,1.679,0,0,1,2,0l11.26,8.194a1.808,1.808,0,0,1,.652.914ZM13.5,1.06c-.022-.015-.044-.021-.065-.033V8.249l3.987,2.876L24.809,9.3c-.017-.015-.029-.035-.047-.048Zm3.315,10.716L13,9.027,9.187,11.776l1.517,4.3H15.3ZM1.24,9.253c-.019.013-.03.033-.048.049L8.58,11.126l3.987-2.876V1.024c-.02.013-.044.018-.063.033ZM5.195,23.489c.005.017.016.029.023.045l4.7-7.079-1.578-4.47L.89,10.145a.929.929,0,0,0,.023.142Zm14.785.618a.787.787,0,0,0,.121-.02l-4.729-7.123H10.629L5.9,24.087a.786.786,0,0,0,.121.02Zm5.108-13.82a.93.93,0,0,0,.023-.142l-7.449,1.84-1.578,4.47,4.7,7.08c.006-.016.017-.029.022-.045l4.282-13.2Z" transform="translate(3 3)" fill="#191919"/>
            <path id="https:_www.flaticon.com_free-icon_hexagon_5555876_related_id_5555876_-_Outline" data-name="https://www.flaticon.com/free-icon/hexagon_5555876?related_id=5555876 - Outline" d="M13-.25a1.925,1.925,0,0,1,1.148.379L25.409,8.322a2.072,2.072,0,0,1,.743,1.041,2.1,2.1,0,0,1,0,1.287l-4.282,13.2a2.024,2.024,0,0,1-.719,1.011,1.941,1.941,0,0,1-1.165.389H6.02a1.941,1.941,0,0,1-1.165-.389,2.025,2.025,0,0,1-.719-1.012l-4.283-13.2a2.1,2.1,0,0,1,0-1.288,2.072,2.072,0,0,1,.744-1.04L11.854.128A1.923,1.923,0,0,1,13-.25Zm6.979,25a1.444,1.444,0,0,0,.866-.29,1.528,1.528,0,0,0,.542-.764l4.282-13.2a1.623,1.623,0,0,0,0-.982,1.568,1.568,0,0,0-.561-.788L13.854.532a1.429,1.429,0,0,0-1.7,0L.887,8.725a1.568,1.568,0,0,0-.562.787,1.623,1.623,0,0,0,0,.983L4.611,23.7a1.528,1.528,0,0,0,.542.765,1.444,1.444,0,0,0,.867.29ZM12.817.572v7.8L8.632,11.4.659,9.427l.365-.312a.393.393,0,0,1,.07-.066L12.357.854a.411.411,0,0,1,.082-.045h0Zm-.5,7.549V1.5L1.759,9.184l6.769,1.671Zm.867-7.54.382.232a.463.463,0,0,1,.074.04l.007,0L24.909,9.051a.381.381,0,0,1,.068.065h0l.365.31L17.368,11.4,13.184,8.377Zm11.058,8.6L13.684,1.5V8.121l3.789,2.734ZM13,8.719l4.112,2.964-1.638,4.639H10.527L8.889,11.683Zm3.516,3.151L13,9.335,9.485,11.869l1.4,3.952h4.24Zm8.872-2.05-.028.346c0,.036-.008.072-.014.108l0,.014-.024.078-4.282,13.2a.351.351,0,0,1-.03.067l-.168.445-5.04-7.59,1.664-4.715ZM20.712,22.972l4.049-12.483L17.853,12.2,16.361,16.42ZM.613,9.819,8.53,11.775l1.664,4.715-5.038,7.59-.167-.443a.341.341,0,0,1-.032-.071L.669,10.345a1.183,1.183,0,0,1-.029-.18ZM8.148,12.2,1.241,10.489,5.29,22.972,9.64,16.42Zm2.346,4.519h5.012l5,7.53-.345.085a1.04,1.04,0,0,1-.159.026H6a1.04,1.04,0,0,1-.159-.026L5.5,24.244Zm4.744.5H10.763l-4.41,6.643h13.3Z" transform="translate(3 3)" fill="#191919"/>
          </g>
        </g>
      </g>
    </g>
  </g>
</svg>
