<svg xmlns="http://www.w3.org/2000/svg" width="420" height="62.818" viewBox="0 0 420 62.818">
  <g id="List_01" data-name="List 01" transform="translate(-300 -4085)">
    <g id="Group_1000004872" data-name="Group 1000004872">
      <g id="text">
        <text id="Process_Excellence" data-name="Process Excellence" transform="translate(384 4089.16)" fill="#191919" font-size="22" font-family="SegoeUI-Bold, Segoe UI" font-weight="700"><tspan x="0" y="24">Process Excellence</tspan></text>
        <text id="Dominion_fowle_in_there_light_she_does_lights." data-name="Dominion fowle in there light she does lights." transform="translate(384 4126.818)" fill="rgba(25,25,25,0.7)" font-size="16" font-family="SegoeUI, Segoe UI" letter-spacing="-0.01em"><tspan x="0" y="17">Lorem, ipsum dolor sit amet consectetur.</tspan></text>
      </g>
      <g id="Group_1000004862" data-name="Group 1000004862">
        <circle id="Ellipse_9" data-name="Ellipse 9" cx="30" cy="30" r="30" transform="translate(300 4085)" fill="#fff"/>
        <path id="Ellipse_9_-_Outline" data-name="Ellipse 9 - Outline" d="M30,1A29.008,29.008,0,0,0,18.712,56.721,29.008,29.008,0,0,0,41.288,3.279,28.818,28.818,0,0,0,30,1m0-1A30,30,0,1,1,0,30,30,30,0,0,1,30,0Z" transform="translate(300 4085)" fill="rgba(25,25,25,0.1)"/>
        <g id="Frame_23" data-name="Frame 23" transform="translate(314 4099)">
          <path id="https:_www.flaticon.com_free-icon_motivation_4835292_related_id_4835292" data-name="https://www.flaticon.com/free-icon/motivation_4835292?related_id=4835292" d="M16.193,16.94a7.748,7.748,0,0,1-5.637,2.443.4.4,0,0,1,0-.8,7.008,7.008,0,0,0,5.1-2.209,6.8,6.8,0,0,0,1.871-4.726.381.381,0,1,1,.762,0,7.609,7.609,0,0,1-2.095,5.29Z" transform="translate(3 4)" fill="#191919"/>
          <path id="https:_www.flaticon.com_free-icon_motivation_4835292_related_id_4835292_-_Outline" data-name="https://www.flaticon.com/free-icon/motivation_4835292?related_id=4835292 - Outline" d="M10.556,19.633a.649.649,0,0,1,0-1.3A6.76,6.76,0,0,0,15.474,16.2a6.55,6.55,0,0,0,1.8-4.554.631.631,0,1,1,1.262,0,7.858,7.858,0,0,1-2.164,5.463A8,8,0,0,1,10.556,19.633ZM17.907,11.5a.141.141,0,0,0-.131.148,7.048,7.048,0,0,1-1.941,4.9,7.255,7.255,0,0,1-5.28,2.287.15.15,0,0,0,0,.3,7.5,7.5,0,0,0,5.457-2.366,7.361,7.361,0,0,0,2.025-5.117A.141.141,0,0,0,17.907,11.5Z" transform="translate(3 4)" fill="#191919"/>
          <path id="https:_www.flaticon.com_free-icon_motivation_4835292_related_id_4835292-2" data-name="https://www.flaticon.com/free-icon/motivation_4835292?related_id=4835292" d="M.435,11H2a.4.4,0,0,1,0,.8H.762V24.2H4.206V11.8H3.775a.4.4,0,0,1,0-.8H6.636a.446.446,0,0,1,.435.455v.279H7.52a1.721,1.721,0,0,0,1.122-.429,7.281,7.281,0,0,1,2.252-1.334,3.615,3.615,0,0,0,2.144-2.309L15.381.309A.434.434,0,0,1,15.791,0a3.278,3.278,0,0,1,3.2,3.346V5.014a.381.381,0,1,1-.762,0V3.346a2.511,2.511,0,0,0-2.2-2.537L13.76,7.915a4.4,4.4,0,0,1-2.613,2.809,6.529,6.529,0,0,0-2.02,1.2,2.464,2.464,0,0,1-1.607.612H7.071v5.54a.381.381,0,1,1-.762,0V11.8H4.968V22.735H6.31v-2.8a.381.381,0,1,1,.762,0V22H7.52a2.464,2.464,0,0,1,1.608.612A6.463,6.463,0,0,0,13.35,24.2h6.487a1.648,1.648,0,0,1-.208-.8V22.138a1.631,1.631,0,0,1,.521-1.2,1.63,1.63,0,0,1-.522-1.2V18.47a1.63,1.63,0,0,1,.522-1.2,1.63,1.63,0,0,1-.522-1.2V14.8a1.63,1.63,0,0,1,.522-1.2,1.63,1.63,0,0,1-.522-1.2V10.842a1.351,1.351,0,0,1,.108-.532,1.842,1.842,0,0,1-1.51-1.841v-1.6a.381.381,0,1,1,.762,0v1.6a1.045,1.045,0,0,0,1.019,1.066h4.461A1.569,1.569,0,0,1,26,11.136V12.4a1.63,1.63,0,0,1-.521,1.2A1.63,1.63,0,0,1,26,14.8v1.261a1.63,1.63,0,0,1-.521,1.2A1.63,1.63,0,0,1,26,18.47v1.261a1.6,1.6,0,0,1-.975,1.492,1.644,1.644,0,0,1,.274.914V23.4A1.569,1.569,0,0,1,23.768,25H13.35a7.206,7.206,0,0,1-4.708-1.771A1.721,1.721,0,0,0,7.52,22.8H7.071v.277a.446.446,0,0,1-.435.455H4.968v1.012A.446.446,0,0,1,4.533,25H.435A.446.446,0,0,1,0,24.544V11.456A.446.446,0,0,1,.435,11Zm24.8,1.4V11.136a.788.788,0,0,0-.769-.8H20.877a.5.5,0,0,0-.486.511V12.4a.788.788,0,0,0,.769.8h3.309a.788.788,0,0,0,.769-.8Zm0,3.667V14.8a.788.788,0,0,0-.769-.8H21.16a.788.788,0,0,0-.769.8v1.261a.788.788,0,0,0,.769.8h3.309a.788.788,0,0,0,.769-.8Zm0,2.406a.788.788,0,0,0-.769-.8H21.16a.788.788,0,0,0-.769.8v1.261a.788.788,0,0,0,.769.8h3.309a.788.788,0,0,0,.769-.8Zm-.7,4.928V22.137a.788.788,0,0,0-.769-.8H21.161a.788.788,0,0,0-.769.8V23.4a.788.788,0,0,0,.769.8h2.608a.788.788,0,0,0,.769-.8Z" transform="translate(3 4)" fill="#191919"/>
          <path id="https:_www.flaticon.com_free-icon_motivation_4835292_related_id_4835292_-_Outline-2" data-name="https://www.flaticon.com/free-icon/motivation_4835292?related_id=4835292 - Outline" d="M15.791-.25a3.528,3.528,0,0,1,3.448,3.6V5.014a.631.631,0,1,1-1.262,0V3.346A2.26,2.26,0,0,0,16.2,1.087L14,7.991a4.652,4.652,0,0,1-2.765,2.967,6.28,6.28,0,0,0-1.943,1.151,2.714,2.714,0,0,1-1.771.673h-.2v5.29a.631.631,0,1,1-1.262,0V12.048H5.218V22.485H6.06V19.931a.631.631,0,1,1,1.262,0v1.822h.2a2.714,2.714,0,0,1,1.771.673,6.213,6.213,0,0,0,4.059,1.528h6.112a1.919,1.919,0,0,1-.082-.555V22.138a1.9,1.9,0,0,1,.428-1.2,1.9,1.9,0,0,1-.428-1.2V18.47a1.9,1.9,0,0,1,.428-1.2,1.9,1.9,0,0,1-.428-1.2V14.8a1.9,1.9,0,0,1,.428-1.2,1.9,1.9,0,0,1-.428-1.2V10.842a1.611,1.611,0,0,1,.038-.352,2.122,2.122,0,0,1-1.441-2.022v-1.6a.631.631,0,1,1,1.262,0v1.6a.794.794,0,0,0,.769.816h4.461a1.735,1.735,0,0,1,1.263.547,1.877,1.877,0,0,1,.518,1.3V12.4a1.9,1.9,0,0,1-.428,1.2,1.9,1.9,0,0,1,.428,1.2v1.261a1.9,1.9,0,0,1-.428,1.2,1.9,1.9,0,0,1,.428,1.2v1.261a1.855,1.855,0,0,1-.88,1.6,1.9,1.9,0,0,1,.179.809V23.4a1.819,1.819,0,0,1-1.781,1.852H13.35a7.456,7.456,0,0,1-4.872-1.832,1.472,1.472,0,0,0-.959-.368h-.2v.027a.7.7,0,0,1-.685.705H5.218v.762a.7.7,0,0,1-.685.705H.435a.7.7,0,0,1-.685-.705V11.456a.712.712,0,0,1,.2-.494.671.671,0,0,1,.488-.211H2a.649.649,0,0,1,0,1.3H1.012v11.9H3.956v-11.9H3.775a.649.649,0,0,1,0-1.3H6.636a.7.7,0,0,1,.685.705v.029h.2a1.471,1.471,0,0,0,.958-.368,7.53,7.53,0,0,1,2.33-1.38A3.363,3.363,0,0,0,12.8,7.587L15.143.233A.683.683,0,0,1,15.791-.25Zm2.817,5.413a.141.141,0,0,0,.131-.148V3.346A3.028,3.028,0,0,0,15.791.25a.185.185,0,0,0-.172.135L13.276,7.739a3.866,3.866,0,0,1-2.3,2.468A7.031,7.031,0,0,0,8.805,11.5a1.971,1.971,0,0,1-1.286.49h-.7v-.529a.2.2,0,0,0-.185-.205H3.775a.15.15,0,0,0,0,.3h.681v12.9H.512v-12.9H2a.15.15,0,0,0,0-.3H.435a.175.175,0,0,0-.127.056.214.214,0,0,0-.058.149V24.544a.2.2,0,0,0,.185.205h4.1a.2.2,0,0,0,.185-.205V23.282H6.636a.2.2,0,0,0,.185-.205V22.55h.7a1.971,1.971,0,0,1,1.286.49,6.956,6.956,0,0,0,4.545,1.71H23.768A1.319,1.319,0,0,0,25.049,23.4V22.137a1.392,1.392,0,0,0-.232-.775l-.17-.254.283-.116a1.362,1.362,0,0,0,.82-1.261V18.47a1.385,1.385,0,0,0-.441-1.019l-.2-.184.2-.184a1.385,1.385,0,0,0,.441-1.019V14.8a1.384,1.384,0,0,0-.441-1.019l-.2-.184.2-.184A1.385,1.385,0,0,0,25.75,12.4V11.136a1.38,1.38,0,0,0-.38-.959,1.239,1.239,0,0,0-.9-.392H20.008a1.3,1.3,0,0,1-1.269-1.316v-1.6a.132.132,0,1,0-.262,0v1.6a1.6,1.6,0,0,0,1.3,1.595l.316.051-.126.295a1.1,1.1,0,0,0-.088.434V12.4a1.385,1.385,0,0,0,.441,1.019l.2.184-.2.184A1.385,1.385,0,0,0,19.88,14.8v1.261a1.385,1.385,0,0,0,.441,1.019l.2.184-.2.184a1.385,1.385,0,0,0-.441,1.019v1.261a1.385,1.385,0,0,0,.441,1.019l.2.184-.2.184a1.385,1.385,0,0,0-.441,1.019V23.4a1.4,1.4,0,0,0,.176.683l.207.372H13.35A6.713,6.713,0,0,1,8.964,22.8a2.214,2.214,0,0,0-1.444-.551h-.7V19.931a.132.132,0,1,0-.262,0v3.054H4.718V11.548H6.56v6.524a.132.132,0,1,0,.262,0v-5.79h.7a2.214,2.214,0,0,0,1.444-.551,6.778,6.778,0,0,1,2.1-1.242,4.149,4.149,0,0,0,2.462-2.65L15.848.54l.2.02a2.643,2.643,0,0,1,1.727.9,2.857,2.857,0,0,1,.7,1.883V5.014A.141.141,0,0,0,18.608,5.163Zm2.268,4.919h3.593a1.039,1.039,0,0,1,1.019,1.055V12.4a1.038,1.038,0,0,1-1.019,1.055H21.16A1.039,1.039,0,0,1,20.141,12.4V10.842A.751.751,0,0,1,20.876,10.081ZM24.988,12.4V11.136a.538.538,0,0,0-.519-.555H20.877a.251.251,0,0,0-.236.261V12.4a.538.538,0,0,0,.519.555h3.309a.538.538,0,0,0,.519-.555ZM21.16,13.749h3.309A1.039,1.039,0,0,1,25.488,14.8v1.261a1.038,1.038,0,0,1-1.019,1.055H21.16a1.039,1.039,0,0,1-1.019-1.055V14.8A1.039,1.039,0,0,1,21.16,13.749Zm3.309,2.87a.538.538,0,0,0,.519-.555V14.8a.538.538,0,0,0-.519-.555H21.16a.538.538,0,0,0-.519.555v1.261a.538.538,0,0,0,.519.555Zm-3.309.8h3.309a1.039,1.039,0,0,1,1.019,1.055v1.261a1.039,1.039,0,0,1-1.019,1.055H21.16a1.039,1.039,0,0,1-1.019-1.055V18.47A1.039,1.039,0,0,1,21.16,17.416Zm3.309,2.87a.538.538,0,0,0,.519-.555V18.47a.538.538,0,0,0-.519-.555H21.16a.538.538,0,0,0-.519.555v1.261a.538.538,0,0,0,.519.555Zm-3.308.8h2.608a1.039,1.039,0,0,1,1.019,1.055V23.4a1.067,1.067,0,0,1-.295.742.994.994,0,0,1-.724.313H21.161A1.039,1.039,0,0,1,20.141,23.4V22.138A1.039,1.039,0,0,1,21.161,21.083Zm2.608,2.87a.5.5,0,0,0,.363-.159.569.569,0,0,0,.156-.4V22.137a.538.538,0,0,0-.519-.555H21.161a.538.538,0,0,0-.519.555V23.4a.538.538,0,0,0,.519.555h2.608Z" transform="translate(3 4)" fill="#191919"/>
          <path id="https:_www.flaticon.com_free-icon_motivation_4835292_related_id_4835292-3" data-name="https://www.flaticon.com/free-icon/motivation_4835292?related_id=4835292" d="M2.484,23.532a1.133,1.133,0,0,1,0-2.264,1.133,1.133,0,0,1,0,2.264Zm0-1.467a.335.335,0,1,0,.32.335A.328.328,0,0,0,2.484,22.065Z" transform="translate(3 4)" fill="#191919"/>
          <path id="https:_www.flaticon.com_free-icon_motivation_4835292_related_id_4835292_-_Outline-3" data-name="https://www.flaticon.com/free-icon/motivation_4835292?related_id=4835292 - Outline" d="M2.484,23.782a1.383,1.383,0,0,1,0-2.764,1.383,1.383,0,0,1,0,2.764Zm0-2.264a.883.883,0,0,0,0,1.764.883.883,0,0,0,0-1.764Zm0,1.467a.585.585,0,1,1,.57-.585A.578.578,0,0,1,2.484,22.985Z" transform="translate(3 4)" fill="#191919"/>
          <path id="https:_www.flaticon.com_free-icon_motivation_4835292_related_id_4835292-4" data-name="https://www.flaticon.com/free-icon/motivation_4835292?related_id=4835292" d="M25.057,4.475l-.446.233a2.723,2.723,0,0,0-1.182,1.236l-.223.467a.429.429,0,0,1-.782,0L22.2,5.944a2.724,2.724,0,0,0-1.182-1.236l-.446-.233a.467.467,0,0,1,0-.819l.446-.233A2.723,2.723,0,0,0,22.2,2.186l.223-.467a.429.429,0,0,1,.782,0l.223.467a2.724,2.724,0,0,0,1.182,1.236l.446.233a.467.467,0,0,1,0,.819Zm-2.242-1.8a3.514,3.514,0,0,1-1.328,1.39,3.514,3.514,0,0,1,1.328,1.39,3.514,3.514,0,0,1,1.328-1.39,3.514,3.514,0,0,1-1.328-1.39Z" transform="translate(3 4)" fill="#191919"/>
          <path id="https:_www.flaticon.com_free-icon_motivation_4835292_related_id_4835292_-_Outline-4" data-name="https://www.flaticon.com/free-icon/motivation_4835292?related_id=4835292 - Outline" d="M22.815,6.914a.682.682,0,0,1-.617-.4l-.223-.467A2.472,2.472,0,0,0,20.9,4.93L20.457,4.7a.717.717,0,0,1,0-1.262L20.9,3.2a2.472,2.472,0,0,0,1.072-1.123l.223-.467a.679.679,0,0,1,1.234,0l.223.467A2.472,2.472,0,0,0,24.727,3.2l.446.233a.717.717,0,0,1,0,1.262l-.446.233a2.472,2.472,0,0,0-1.072,1.123l-.223.467A.682.682,0,0,1,22.815,6.914Zm0-5.2a.183.183,0,0,0-.166.111l-.223.467a2.975,2.975,0,0,1-1.291,1.35l-.446.233a.218.218,0,0,0,0,.376l.446.233a2.975,2.975,0,0,1,1.291,1.35l.223.467a.179.179,0,0,0,.331,0l.223-.467A2.975,2.975,0,0,1,24.5,4.487l.446-.233a.218.218,0,0,0,0-.376L24.5,3.644A2.975,2.975,0,0,1,23.2,2.294l-.223-.467A.183.183,0,0,0,22.815,1.717Zm0,4.272-.221-.416a3.244,3.244,0,0,0-1.233-1.291l-.372-.216.372-.216a3.244,3.244,0,0,0,1.233-1.291l.221-.416.221.416a3.245,3.245,0,0,0,1.233,1.291l.372.216-.372.216a3.244,3.244,0,0,0-1.233,1.291Zm-.873-1.923a3.74,3.74,0,0,1,.873.907,3.74,3.74,0,0,1,.873-.907,3.74,3.74,0,0,1-.873-.907A3.74,3.74,0,0,1,21.942,4.065Z" transform="translate(3 4)" fill="#191919"/>
          <path id="https:_www.flaticon.com_free-icon_motivation_4835292_related_id_4835292-5" data-name="https://www.flaticon.com/free-icon/motivation_4835292?related_id=4835292" d="M11.742,7.033l-.372.194a2.2,2.2,0,0,0-.956,1l-.186.389a.42.42,0,0,1-.766,0l-.186-.389a2.2,2.2,0,0,0-.956-1l-.372-.194a.457.457,0,0,1,0-.8l.372-.194a2.2,2.2,0,0,0,.956-1l.186-.389a.42.42,0,0,1,.766,0l.186.389a2.2,2.2,0,0,0,.956,1l.372.194a.457.457,0,0,1,0,.8Zm-1.9-1.426a3,3,0,0,1-.981,1.026,3,3,0,0,1,.981,1.026,3,3,0,0,1,.981-1.026A3,3,0,0,1,9.845,5.606Z" transform="translate(3 4)" fill="#191919"/>
          <path id="https:_www.flaticon.com_free-icon_motivation_4835292_related_id_4835292_-_Outline-5" data-name="https://www.flaticon.com/free-icon/motivation_4835292?related_id=4835292 - Outline" d="M9.845,9.114a.672.672,0,0,1-.608-.39l-.186-.389A1.953,1.953,0,0,0,8.2,7.449l-.372-.194a.707.707,0,0,1,0-1.244L8.2,5.816a1.953,1.953,0,0,0,.847-.887l.186-.389a.67.67,0,0,1,1.217,0l.186.389a1.953,1.953,0,0,0,.847.887l.372.194a.707.707,0,0,1,0,1.244l-.372.194a1.953,1.953,0,0,0-.847.887l-.186.389A.672.672,0,0,1,9.845,9.114Zm0-4.464a.174.174,0,0,0-.157.105L9.5,5.145A2.456,2.456,0,0,1,8.436,6.259l-.372.194a.208.208,0,0,0,0,.358l.372.194A2.456,2.456,0,0,1,9.5,8.12l.186.389a.17.17,0,0,0,.315,0l.186-.389a2.456,2.456,0,0,1,1.066-1.114l.372-.194a.208.208,0,0,0,0-.358l-.372-.194a2.456,2.456,0,0,1-1.066-1.114L10,4.756A.174.174,0,0,0,9.845,4.65Zm0,3.506-.216-.373a2.749,2.749,0,0,0-.9-.94L8.4,6.632l.333-.211a2.747,2.747,0,0,0,.9-.94l.216-.373.216.373a2.748,2.748,0,0,0,.9.94l.333.211-.333.211a2.747,2.747,0,0,0-.9.94ZM9.292,6.632a3.259,3.259,0,0,1,.553.574,3.258,3.258,0,0,1,.553-.574,3.258,3.258,0,0,1-.553-.574A3.258,3.258,0,0,1,9.292,6.632Z" transform="translate(3 4)" fill="#191919"/>
        </g>
      </g>
    </g>
  </g>
</svg>
